<svg width="424" height="604" viewBox="0 0 424 604" fill="none" xmlns="http://www.w3.org/2000/svg">
<path d="M0.0231593 78.9999L30.5232 301C36.5232 222.167 47.0232 69.9999 44.5232 69.9999C38.8663 69.9999 37.0232 57.9999 18.0232 62.4999C2.82316 66.0999 -0.310174 74.9999 0.0231593 78.9999Z" fill="#E8EEFF"/>
<path d="M407 567.5L377 560.5L391.5 307C402.5 380.667 424.3 532.3 423.5 549.5C422.7 566.7 412.167 568.667 407 567.5Z" fill="#E8EEFF"/>
<path d="M288.023 119.966C288.423 127.166 279.19 132.299 274.523 133.966C276.523 136.966 293.523 142.466 305.023 146.466C314.223 149.666 321.857 139.466 324.523 133.966L360.023 59.4662C359.857 45.6329 356.623 15.2662 345.023 4.46617C333.423 -6.33383 323.523 4.96617 320.023 11.9662C309.19 44.9662 287.623 112.766 288.023 119.966Z" fill="#E8EEFF"/>
<path d="M25.5233 420V391.5L46.0232 51.5C49.6231 27.1 64.8565 28.6667 72.0232 32.5L271.234 132.105L289.023 141C311.423 152.2 322.357 139.333 325.023 131.5C331.485 115.039 344.923 83.7537 358.25 60C363.139 51.2846 368.014 43.5832 372.523 38C389.323 17.2 399.523 32.6667 402.523 43V88C399.561 149.037 395.351 234.31 391.137 317C385.915 419.494 380.687 518.018 377.825 561.5C377.019 573.746 376.401 581.627 376.023 584C373.223 601.6 355.857 603.667 347.523 602.5L148.023 500.5C119.023 485.5 57.1233 453.7 41.5233 446.5C25.9233 439.3 24.3566 425.833 25.5233 420Z" fill="#D9E3FF" stroke="#D9E3FF"/>
</svg>
