<svg width="18" height="18" viewBox="0 0 18 18" fill="none" xmlns="http://www.w3.org/2000/svg">
<path d="M17.7188 9.03003C17.7188 13.8464 13.7812 17.7488 9 17.7488C4.18359 17.7488 0.28125 13.8464 0.28125 9.03003C0.28125 4.24878 4.18359 0.311279 9 0.311279C13.7812 0.311279 17.7188 4.24878 17.7188 9.03003ZM7.98047 13.6707L14.4492 7.2019C14.6602 6.99097 14.6602 6.60425 14.4492 6.39331L13.6406 5.61987C13.4297 5.37378 13.0781 5.37378 12.8672 5.61987L7.59375 10.8933L5.09766 8.43237C4.88672 8.18628 4.53516 8.18628 4.32422 8.43237L3.51562 9.20581C3.30469 9.41675 3.30469 9.80347 3.51562 10.0144L7.17188 13.6707C7.38281 13.8816 7.76953 13.8816 7.98047 13.6707Z" fill="#3267FF"/>
</svg>
