<svg width="14" height="14" viewBox="0 0 14 14" fill="none" xmlns="http://www.w3.org/2000/svg">
<path d="M5.64392 1.39795C5.35095 1.69092 5.38025 2.13037 5.64392 2.42334L9.18884 5.76318H0.78064C0.370483 5.76318 0.0775146 6.08545 0.0775146 6.46631V7.40381C0.0775146 7.81396 0.370483 8.10693 0.78064 8.10693H9.18884L5.64392 11.4761C5.38025 11.769 5.38025 12.2085 5.64392 12.5015L6.28845 13.146C6.58142 13.4097 7.02087 13.4097 7.28455 13.146L12.9974 7.43311C13.2611 7.16943 13.2611 6.72998 12.9974 6.43701L7.28455 0.753418C7.02087 0.489746 6.58142 0.489746 6.28845 0.753418L5.64392 1.39795Z" fill="white"/>
</svg>
