<svg width="17" height="17" viewBox="0 0 17 17" fill="none" xmlns="http://www.w3.org/2000/svg">
<path d="M8.52 0.970215C4.23875 0.970215 0.770004 4.43896 0.770004 8.72021C0.770004 13.0015 4.23875 16.4702 8.52 16.4702C12.8013 16.4702 16.27 13.0015 16.27 8.72021C16.27 4.43896 12.8013 0.970215 8.52 0.970215ZM7.61375 5.47021C7.30125 5.18896 7.30125 4.68896 7.5825 4.40771L7.92625 4.06396C8.23875 3.75146 8.7075 3.75146 8.98875 4.06396L13.145 8.22021C13.4263 8.50146 13.4263 8.97021 13.145 9.25146L8.98875 13.4077C8.7075 13.689 8.23875 13.689 7.92625 13.4077L7.5825 13.064C7.30125 12.7827 7.30125 12.2827 7.61375 12.0015L9.9575 9.72021H4.27C3.8325 9.72021 3.52 9.40771 3.52 8.97021V8.47021C3.52 8.06396 3.8325 7.72021 4.27 7.72021H9.9575L7.61375 5.47021Z" fill="#3267FF"/>
</svg>
