<svg width="15" height="15" viewBox="0 0 15 15" fill="none" xmlns="http://www.w3.org/2000/svg">
<path d="M6.44033 8.37274L8.13211 10.0646C8.28362 10.2161 8.51648 10.2503 8.70517 10.149L10.7326 9.0606C10.8826 8.98002 11.0638 8.98391 11.2102 9.07087L14.1683 10.8263C14.3794 10.9515 14.4643 11.2135 14.3656 11.4381C14.1128 12.0134 13.6527 13.0677 13.4699 13.5339C13.4315 13.6321 13.3742 13.722 13.2946 13.7909C11.3231 15.4998 7.40071 13.4176 4.39839 10.4152C1.39561 7.41265 -0.686608 3.49016 1.02229 1.51865C1.09135 1.439 1.18126 1.38176 1.27926 1.34333C1.7453 1.16056 2.79978 0.700423 3.37502 0.447645C3.59963 0.348867 3.86158 0.4338 3.9868 0.644889L5.74221 3.60309C5.82901 3.74947 5.8329 3.93069 5.75248 4.08065L4.66408 6.10785C4.56281 6.29654 4.59703 6.5294 4.74854 6.68091L6.44033 8.37274Z" fill="#3267FF"/>
</svg>
