<svg width="45" height="30" fill="none" xmlns="http://www.w3.org/2000/svg"><path d="M11.87.301c-2.984 0-5.543 1.067-7.677 3.201C2.059 5.636.992 8.195.992 11.18v18.13h18.13V11.18H4.618c0-2.002.708-3.71 2.124-5.127C8.16 4.635 9.868 3.927 11.87 3.927V.301zm25.382 0c-2.984 0-5.543 1.067-7.677 3.201-2.134 2.134-3.201 4.693-3.201 7.677v18.13h18.13V11.18H30c0-2.002.708-3.71 2.125-5.127 1.416-1.417 3.125-2.125 5.127-2.125V.301zM4.618 14.805h10.878v10.878H4.618V14.805zm25.382 0h10.878v10.878H30V14.805z" fill="#3267FF"/></svg>