<svg width="15" height="16" viewBox="0 0 15 16" fill="none" xmlns="http://www.w3.org/2000/svg">
<path d="M14.5338 0.958406C14.4733 0.928189 14.4104 0.910563 14.3449 0.905526C14.2794 0.90049 14.2165 0.913081 14.156 0.943298L9.6839 3.17937L5.21176 0.943298C5.1614 0.913081 5.106 0.897972 5.04557 0.897972C4.98513 0.897972 4.9247 0.913081 4.86426 0.943298L0.225925 3.27002C0.16549 3.30024 0.115128 3.34556 0.0748387 3.406C0.0345491 3.46643 0.0144043 3.5319 0.0144043 3.60241V15.2058C0.0144043 15.2763 0.0295129 15.3418 0.0597301 15.4022C0.0899473 15.4627 0.135273 15.508 0.195707 15.5382C0.225925 15.5583 0.25866 15.5735 0.293913 15.5835C0.329167 15.5936 0.366938 15.5986 0.407228 15.5986C0.437445 15.5986 0.465144 15.5961 0.490325 15.5911C0.515506 15.586 0.543205 15.5735 0.573422 15.5533L5.04557 13.3172L9.51771 15.5533C9.56807 15.5835 9.62347 15.5986 9.6839 15.5986C9.74434 15.5986 9.79974 15.5835 9.8501 15.5533L14.5035 13.2417C14.564 13.2014 14.6143 13.151 14.6546 13.0906C14.6949 13.0302 14.7151 12.9647 14.7151 12.8942V1.2908C14.7151 1.22029 14.6974 1.15734 14.6622 1.10194C14.6269 1.04654 14.5841 0.998696 14.5338 0.958406ZM4.65274 12.6525L0.784943 14.5864V3.84415L4.65274 1.91025V12.6525ZM5.42328 1.91025L9.29108 3.84415V14.5864L5.42328 12.6525V1.91025ZM13.9445 12.6525L10.0767 14.5864V3.84415L13.9445 1.91025V12.6525Z" fill="white"/>
</svg>
