<svg width="16" height="16" viewBox="0 0 16 16" fill="none" xmlns="http://www.w3.org/2000/svg">
<path d="M6.89571 9.10414L8.82918 11.0376C9.00233 11.2108 9.26845 11.2499 9.48409 11.1342L11.8012 9.89027C11.9726 9.79818 12.1797 9.80263 12.347 9.902L15.7277 11.9082C15.9689 12.0513 16.066 12.3507 15.9531 12.6074C15.6642 13.2648 15.1384 14.4698 14.9295 15.0026C14.8856 15.1148 14.8202 15.2176 14.7291 15.2963C12.476 17.2494 7.99328 14.8696 4.56207 11.4384C1.13032 8.00689 -1.24936 3.52405 0.703661 1.27089C0.782592 1.17987 0.885346 1.11445 0.997343 1.07053C1.52995 0.861646 2.73508 0.335779 3.39249 0.04689C3.6492 -0.065999 3.94857 0.0310677 4.09168 0.272312L6.09786 3.65311C6.19705 3.8204 6.2015 4.02751 6.10959 4.19889L4.8657 6.51569C4.74997 6.73134 4.78908 6.99747 4.96224 7.17062L6.89571 9.10414Z" fill="white"/>
</svg>
