<svg width="15" height="15" fill="none" xmlns="http://www.w3.org/2000/svg"><g clip-path="url(#clip0_1_44)"><path d="M2.86 3.587c.366-.255.917-.206 1.245.065l-.376-.547c-.303-.433-.195-.9.238-1.203.432-.302 1.658.51 1.658.51-.306-.436-.249-.99.187-1.295a.965.965 0 011.344.237L11.21 7.08l-.517 5.006-4.31-1.571-3.76-5.574a.97.97 0 01.238-1.353z" fill="#EF9645"/><path d="M2.018 6.772s-.44-.642.202-1.082c.641-.44 1.08.202 1.08.202L5.344 8.87a3.77 3.77 0 01.233-.348L2.742 4.39s-.44-.64.202-1.08c.641-.44 1.081.2 1.081.2l2.666 3.888c.1-.08.2-.162.305-.241l-3.09-4.508s-.44-.641.202-1.081c.64-.44 1.08.201 1.08.201L8.28 6.275c.114-.07.226-.13.339-.194L5.729 1.87s-.44-.641.202-1.081c.64-.44 1.08.201 1.08.201l3.055 4.455.464.677c-1.924 1.32-2.107 3.803-1.008 5.406.22.321.541.102.541.102-1.32-1.925-.917-4.088 1.008-5.407l-.567-2.84s-.212-.748.536-.96c.748-.212.96.536.96.536l.655 1.946c.26.771.537 1.54.902 2.268a4.668 4.668 0 01-8.02 4.732L2.018 6.772z" fill="#FFDC5D"/><path d="M5.637 12.49c-1.556 0-3.128-1.571-3.128-3.127 0-.215-.157-.389-.372-.389a.403.403 0 00-.406.39c0 2.333 1.572 3.904 3.906 3.904.215 0 .389-.19.389-.405 0-.215-.174-.372-.39-.372z" fill="#5DADEC"/><path d="M3.692 13.252c-1.166 0-1.944-.778-1.944-1.944a.389.389 0 10-.778 0c0 1.555 1.167 2.722 2.722 2.722a.389.389 0 100-.778zM10.303.808a.389.389 0 000 .778c1.556 0 3.111 1.395 3.111 3.11a.389.389 0 00.778 0c0-2.144-1.555-3.888-3.889-3.888z" fill="#5DADEC"/><path d="M12.248.046c-.215 0-.39.158-.39.373s.175.405.39.405c1.166 0 1.928.865 1.928 1.928 0 .215.19.39.405.39.215 0 .373-.175.373-.39 0-1.492-1.15-2.706-2.706-2.706z" fill="#5DADEC"/></g><defs><clipPath id="clip0_1_44"><path fill="#fff" transform="translate(.97 .03)" d="M0 0h14v14H0z"/></clipPath></defs></svg>