<svg id="eOM7Gwr6T3p1" xmlns="http://www.w3.org/2000/svg" xmlns:xlink="http://www.w3.org/1999/xlink" viewBox="0 0 848 579" shape-rendering="geometricPrecision" text-rendering="geometricPrecision"><path d="M457,261h14v-14l-14-2v16Zm46-4l13-3-3-14-13,1l3,16Z" fill="#bf0830"/><path d="M481,137c-1.595775,37.765357-4.597856,75.458159-9,113l-4,2-11-2c-1.968909-.850706-3.175923-2.862395-3-5l-2-114v-2c.180967-1.581866,1.104501-2.982973,2.486904-3.772918s3.058382-.874273,4.513096-.227082l18,8c2.03192.378432,3.621568,1.96808,4,4Z" fill="#1a2578"/><path d="M500,131c1,20,2,41,5,61c2,18,9,37,10,52c.315627,1.219772.0381,2.516962-.748982,3.500814s-1.991713,1.53936-3.251018,1.499186h-12c-1.871066.059202-3.532936-1.1872-4-3l-14-49-9-50-10-27l38,11Z" fill="#2836a5"/><path d="M471,263h-12l-5-6-9,6h-2c-.552285,0-1,.447715-1,1s.447715,1,1,1h28v-2Z" fill="#ae253d"/><path d="M471,263v-5c0,0-2-3-5-2c0,0-5,4-9,0l-10,4-4,3h28Z" fill="#1f1587"/><path d="M517,255l-12,3-6-3-7,7-1,1c-.276142-.552285-.947715-.776142-1.5-.5s-.776142.947715-.5,1.5c-.276142.552285-.052285,1.223858.5,1.5s1.223858.052285,1.5-.5l27-7v-3c-.309401-.178633-.690599-.178633-1,0Z" fill="#ae253d"/><path d="M517,255l-2-5c0,0-2-2-5,1c0,0-3,4-8,1l-9,7-3,4l27-8Z" fill="#1f1587"/><path d="M453,68l-7-13c-2-4-5-39-5-39l10-1l6,28l8,17-12,8Z" fill="#bf0830"/><path d="M439,4c0-.552285.447715-1,1-1s1,.447715,1,1l1,3h1l-2-5c-.178633-.309401-.178633-.690599,0-1c.309401-.178633.690599-.178633,1,0c.552285,0,1,.447715,1,1l2,5v-6c0-.552285.447715-1,1-1s1,.447715,1,1v6h1v-6c0-.552285.447715-1,1-1s1,.447715,1,1l1,10l2-2c.309401-.178633.690599-.178633,1,0c.309401-.178633.690599-.178633,1,0c0,.552285-.447715,1-1,1l-3,6h-2l-8,1-1-6-1-6c-.178633-.309401-.178633-.690599,0-1Zm74,71l10-11l12-38-10-3-11,26-11,16l10,10Z" fill="#bf0830"/><path d="M539,14c0-.552285-.447715-1-1-1s-1,.447715-1,1l-2,3l2-5c.178633-.309401.178633-.690599,0-1-.276142-.552285-.947715-.776142-1.5-.5s-.776142.947715-.5,1.5l-2,4v1l-1-1l2-5c.552285-.276142.776142-.947715.5-1.5s-.947715-.776142-1.5-.5c-.552285,0-1,.447715-1,1l-2,6v-6c.178633-.309401.178633-.690599,0-1-.276142-.552285-.947715-.776142-1.5-.5s-.776142.947715-.5,1.5l-2,9-2-2c-.309401-.178633-.690599-.178633-1,0v1l2,6h2l8,3l1-6l3-5v-1c.178633-.309401.178633-.690599,0-1ZM483,49l-3,7c0,0-1,3,1,4l-3,5c-1,1,1,1,2,2l2,2c2,1,5-1,5-2l2-6l1-2l3-9-10-1Z" fill="#bf0830"/><path d="M488,55c0,0-1-2-3-2v1c2-1,2,1,3,1Zm-5-2l-1-2v1c1-1,1,1,1,1Zm10-3l-3,2c0,0-7,0-8-3-2-4-1-5,0-6c1,0,4-1,5,1l4,1l2,4v1Z" fill="#090028"/><path d="M493,49c0,0,3,1,2,4l-2,4c0,1-1,6-5,4l3-8l2-3v-1Z" fill="#090028"/><path d="M488,56c-.276142,1.104569.395431,2.223858,1.5,2.5s2.223858-.395431,2.5-1.5-.395431-2.223858-1.5-2.5-2.223858.395431-2.5,1.5Z" fill="#bf0830"/><path d="M490,58c.552285,0,1-.447715,1-1c.178633-.309401.178633-.690599,0-1-.309401-.178633-.690599-.178633-1,0h1-1c-.309401-.178633-.690599-.178633-1,0c0-.552285.447715-1,1-1s1,.447715,1,1v1c0,.552285-.447715,1-1,1Zm-3,2c0,0-2,5-8,3l2-3c0,0,3,2,6,0Z" fill="#ae253d"/><path d="M480,55c0,0-3,5,0,7c5,2,7-1,8-3l2-5l1-1-2,1-2,4-7-3Z" fill="#090028"/><path d="M483,56h-1l2-3-2,3h1Z" fill="#ae253d"/><path d="M484,58l-3-1l1,1h2Z" fill="#fbfdfc"/><path d="M452,15l6,28l12,21l26,2l17-16l11-26c3,0,11,4,11,4L524,62l-2,4-18,20c-2,3-3,57-3,57-41,0-50-10-50-10l5-56-9-16-2-6-5-39l12-1Z" fill="#fce6cf"/><path style="mix-blend-mode:multiply" d="M468,139c3-33,14-73,14-74h-1c0,0-11,41-13,74Z" opacity="0.5" fill="#f7546c"/><path d="M482,65l-2,2c-13,13-36-1-31,21c2-3,2-8,5-10l2-1c9-1,22,1,26-12Z" fill="#090028"/><path d="M483,67l-2,1-1-1v-2l1-1l2,1v2Z" fill="#090028"/><path d="M482,64l-3-1-1,2l2,2l2-2l1,2l6-2-1-1h-6Z" fill="#f7546c"/><path d="M501,141c0,0-36,0-50-10v2c0,0,5,5,22,8c16,3,28,2,28,2v-2Z" fill="#090028"/><path d="M472,138l-1,3-7-1v-1l1-2v-1l7,2Z" fill="#bf0830"/><path d="M590,265h-166c-5,0-10,4-10,9v363c0,6,5,10,10,10h166c5,0,10-4,10-10v-363c0-5-5-9-10-9Z" fill="#a22641"/><path id="eOM7Gwr6T3p27" d="M545,265h-166c-5,0-10,4-10,9v363c0,6,5,10,10,10h166c5,0,10-4,10-10v-363c0-5-5-9-10-9Z" fill="#c43f5c"/><path d="M387,380v257c0,5-3,10-6,10h-120c-4,0-7-5-7-10v-257c0-5,3-9,7-9h120c3,0,6,4,6,9Z" fill="#0b1249"/><path d="M355,380v257c0,5-3,10-7,10h-120c-4,0-7-5-7-10v-257c0-5,3-9,7-9h120c4,0,7,4,7,9Z" fill="#1a2578"/><path d="M183,371l7-2l4,4l3-3l4-2-3-5l3-6l6-1l1-3v-4l-5-2-2-7l3-4-2-3-2-3-5,2-7-3v-6l-4-1h-4l-2,5-6,2-5-3-3,2-3,2l3,6c-2,1-3,3-4,6h-5l-1,4v4l5,2l2,6-4,5l3,3l2,3l5-3l6,4l1,6h7l2-5Zm-16-17c-2.679837-5.188516-2.10483-11.460682,1.473733-16.075453s9.510094-6.733176,15.202413-5.429433s10.11055,5.792608,11.323854,11.504886c1.560607,7.347396-2.553915,14.716319-9.627627,17.242645s-14.925443-.568936-18.372373-7.242645Zm555,12h7l2,5l4-1l3-2-1-5l5-4l5,1l2-3l2-3-5-3l1-7l4-2-1-4-1-3-5,1-5-5l2-5-3-2-4-1-3,4h-6l-3-5-3,1-4,1l1,6-5,4-5-2-1,4-2,3l4,3v6l-4,3l1,3l1,4l5-1l4,5-1,5l3,1l3,2l3-4Zm-9-19c-.276142-7.455844,5.544156-13.723858,13-14s13.723858,5.544156,14,13-5.544156,13.723858-13,14-13.723858-5.544156-14-13ZM258,261c3,2,6,4,9,4l2,9h12l1-9l10-4l7,5l5-5l4-4-5-7l4-10l8-2v-12l-9-1-4-10l5-7-4-4-5-4-7,5-10-4-1-9h-6l-6,1-2,8-10,4-7-4-4,4-4,4l5,7-4,10-8,2v12l8,1l5,10-5,7l4,4l5,4l7-5Zm-5-34c3.313708-11.874122,15.625878-18.813708,27.5-15.5s18.813708,15.625878,15.5,27.5-27.5,15.5-27.5,15.5-18.813708-15.625878-15.5-27.5Z" fill="#d95f76"/><path d="M558,153c11,0,36,0,58,3c9,1,17-6,18-16c0-4-1-8-5-14-12-20-36-2-36,8c0,0-4-16-18-14-15,2-11,25-11,25s-5-2-8,1c-3,2-2,7,2,7ZM242,122c11-1,36-1,58,1c9,1,18-6,18-16c0-4-1-8-5-14-12-20-36-1-36,9c0,0-4-16-19-13-14,2-10,24-10,24s-4-1-8,2c-3,2-1,7,2,7Zm104,87c20.894542-2.59325,41.983046-3.262726,63-2c.535898-.928203.535898-2.071797,0-3-2-2-4-3-8-3c0,0,4-17-13-18-16-2-16,16-16,16s-10-9-15,2c0,0-10-4-15,2-.784035,1.32304-.740123,2.978419.112952,4.258032s2.364229,1.956831,3.887048,1.741968Z" fill="#fff"/><path d="M711,437v199c0,6-3,11-7,11h-118c-3,0-6-5-6-11v-199c0-6,3-10,6-10h118c4,0,7,4,7,10Z" fill="#1a2578"/><path d="M679,437v199c0,6-3,11-7,11h-117c-4,0-7-5-7-11v-199c0-6,3-10,7-10h117c4,0,7,4,7,10Z" transform="translate(60.679993-6)" fill="#2836a5"/><path d="M294,508v71c0,6-3,10-7,10h-124c-4,0-7-4-7-10v-71c0-5,3-10,7-10h124c4,0,7,5,7,10Z" fill="#a22641"/><path id="eOM7Gwr6T3p35" d="M261,508v71c0,5-3,10-7,10h-125c-4,0-7-5-7-10v-71c0-6,3-10,7-10h125c4,0,7,4,7,10Z" transform="translate(-48.287735 33)" fill="#c43f5c"/><path d="M311,295v12c-2,0,4,12,7,5c1-3-3-17-7-19s0,2,0,2Z" fill="#090028"/><path d="M311,292c0,0,4,10,3,12-.290847.958825-1.041175,1.709153-2,2l2,6h-8l-4-16l1-5l8,1Z" fill="#ff6160"/><path d="M311,301v-1l-1-1v-1v1c.200426.443994.556006.799574,1,1v1Zm1,7v-2h-6l6,2Z" fill="#ae253d"/><path d="M305,299c0,0,1-2,3-1-1-1-3,1-3,1Zm6-1h-1v-1l2-1v1h-1v1Z" fill="#090028"/><path d="M309,302h3l-1,1-2-1Z" fill="#fbfdfc"/><path d="M308,293l-2-2l3,2h-1Z" fill="#ff6160"/><path d="M303,293c0,0,1,4,10,3c0,0,1-6-6-7-7,0-6,5-6,5l2-1Z" fill="#090028"/><path d="M304,295l-1,5c0,0,7,15,0,16h-1c-5,1-4-11-5-18-1-3,2-8,6-7c4,2,1,4,1,4Z" fill="#090028"/><path d="M305,302c.276142,1.104569-.395431,2.223858-1.5,2.5s-2.223858-.395431-2.5-1.5.395431-2.223858,1.5-2.5s2.223858.395431,2.5,1.5Z" fill="#ff6160"/><path d="M303,303c-.309401.178633-.690599.178633-1,0-.178633-.309401-.178633-.690599,0-1c.309401-.178633.690599-.178633,1,0v-1l-1,1v-1h1c.552285,0,1,.447715,1,1h-1c-.309401-.178633-.690599-.178633-1,0-.178633.309401-.178633.690599,0,1c.309401.178633.690599.178633,1,0Z" fill="#ae253d"/><path d="M311,291c0,0,4,2,5,12l-4-9-1-3Z" fill="#090028"/><path d="M324,434l-12-4l5-14l12,2-5,16Zm-3-39l5-11-12-6-5,11l12,6Z" fill="#ff6160"/><path d="M306,375l10,4l3,2-5,42c0,0,7,5,14,6c0,0,14-52,14-58c0-7-31-22-31-22l-14,8c0,0-21,2-26,5-5,4,38,23,38,23l-3-10Z" fill="#fce6cf"/><path d="M317,378c0,0-24-14-32-16-9-3-15-1-16,2v12c2,3,34,14,41,16c0,0,6-7,7-14Z" fill="#fce6cf"/><path d="M270,364h-1v-1l7-3l11-2l6-1v1c-1,0-21,2-23,6Zm45,21h-1c2-2,2-5,3-7-.153368,2.45038-.835678,4.838464-2,7Z" fill="#090028"/><path d="M288,362h-1l-2-2v-1l3,3Zm49,33v-1l5-22c1-4-6-8-6-8v-1c0,0,7,5,7,9-1.900221,7.69235-3.90039,15.359665-6,23Zm-15-12l-5-3h-1l1-1l5,4Z" fill="#090028"/><path d="M328,429c-1,0-10-2-15-5v-1l5-31l1-11-1,11-4,31c4,4,14,5,14,5v1Zm-55-52c-3-2-3-4-3-4h1c0,0,0,2,2,3v1Zm2-1c-3-1-3-3-3-3l3,3Z" fill="#090028"/><path d="M314,330l-5-19h-12l-3,1c-5,3-18,17-17,27c0,8,12,6,24,8l3-11-4-1l14-5Z" fill="#d95f76"/><path d="M310,332v-21h12l3,1c5,3,20,18,19,27c0,8-15,8-21,10l-4-13v-1l-9-3Z" fill="#d95f76"/><path d="M329,335v24c0,0-21,4-40-1l1-20c0,0,0-3,2-5l19-8l18,10Z" fill="#d95f76"/><path d="M309,318v-1c-7,0-9-5-9-5-1,0-1,0,0,0c0,0,2,5,9,6Z" fill="#090028"/><path d="M317,311h-15c0,0,2,5,8,5c2,0,5-1,7-5Z" fill="#ff6160"/><path d="M307,342v-4l7,2l2-1c.337345-.998658.670681-1.998666,1-3l2,3l3-2l3,10-10,1-7-2-1-2c-.357266-.618802-.357266-1.381198,0-2Z" fill="#f78c63"/><path d="M316,336v3c-.512889.578614-1.229376.936857-2,1l-2-1l1-4l3,1Zm-6,5c-1.02605-.249392-2.029525-.583883-3-1l3,1Zm0,2c-1.051182-.153662-2.066857-.49222-3-1l3,1Zm0,2l-3-1l3,1Z" fill="#ae253d"/><path d="M320,338l4-2l3,7-2,6-1-1-4-10Z" fill="#4cb7d8"/><path d="M328,333h3l-1-1-2,1-4-7l4,7Zm-1-16l-3-2v-1c0,0,2,0,4,3h-1Zm0,2l-3-3c0,0,2,0,3,3Z" fill="#090028"/><path d="M314,338c.715431-.61605,1.38395-1.284569,2-2h1l-3,2Zm0,2c1.124669-.457483,2.145143-1.137799,3-2l-3,2Zm1,2c.780162-.542589,1.457411-1.219838,2-2v1l-2,1Z" fill="#ae253d"/><path d="M294,333h-2h2l3-8v1l-3,7Z" fill="#090028"/><path d="M304,336l-2,12-5-5l2-6l5-1Z" fill="#4cb7d8"/><path d="M302,348c-4.521881-.618154-8.912779-1.969199-13-4l12,3l2-11-9-3l10,3-2,12Zm19,0c4.518102-.635204,8.90632-1.985425,13-4h-1l-12,3-2-11l10-3h-1l-9,3l2,12Z" fill="#090028"/><path d="M334,445l-24-11l3-5c0,0,2-2,4,1c0,0,3,4,8,3l7,8l2,4Z" fill="#e2f2f1"/><path d="M333,446l-24-11l1-2l24,11c.552285-.276142,1.223858-.052285,1.5.5s.052285,1.223858-.5,1.5h-1c-.309401.178633-.690599.178633-1,0Z" fill="#090028"/><path d="M290,360h42l2-2v-23l-2-3h-42c-2,0-3,2-3,3v23c0,1,1,2,3,2Z" fill="#2a1968"/><path d="M308,344c0-1.104569.895431-2,2-2s2,.895431,2,2-.895431,2-2,2-2-.895431-2-2Z" fill="#fff"/><g transform="translate(-1.320007-21.278931)"><path d="M666,386l-3,2-5,2-6,1v1l-38,2-6,6l2,2l22-1-1,5c13,1,33,1,36-4s0-12-1-16ZM580,486h17v-16l-16-2-1,18Z" fill="#fff"/><path d="M632,430h25l8-1c7-1,9-23,1-37s-36,28-36,28l2,10Z" fill="#bf0830"/><path d="M606,486h17v-15l-17-2v17Z" fill="#fff"/><path d="M617,400c0,0-36,2-37,6-1,5-4,49-2,67h20l2-46l10-1l25-30-18,4Z" fill="#890421"/><path d="M633,399c0,0-27,8-28,12s-4,43-2,62c0,0,14,1,21-1l2-43h6l15-26-14-4Z" fill="#bf0830"/><path d="M616,474l9-1l2-44-3,2l2-1-2,43h-12v1h4Z" fill="#090028"/><path d="M622,465l1-30h-1l-1,29l1,1Zm-26-37l8-1v-1l-8,1v1Z" fill="#090028"/><path d="M589,474l9-1l2-46-2,1v1l1-1-1,45h-10v1h1Z" fill="#090028"/><path d="M596,466v-33h-1v32l1,1Zm47-36l23-1c-26,2-43,0-43,0l20,1Z" fill="#090028"/><path d="M635,385l-21,9l4,8l11-3l6-14Zm28-35c0,0,9-1,13,2c6,3,4,23,4,23l-6-4-11-21Z" fill="#2a1968"/><path d="M665,392l-6,2v-1l6-1h1-1Z" fill="#090028"/><path d="M669,388l-4,2-4,2-7,1l1,1-38,3c-3,0-5,3-7,6l2,1l23-1-2,6c14,1,33,1,37-5c3-5,0-11-1-16Z" fill="#f9b59d"/><path d="M672,351l-18-1h-1c-14,3-16,13-16,13l-6,30-8,1c-2,4-1,17-1,17l37,4c0,0,8,1,15-7c4-6,6-24,6-36c0,0-1-20-8-21Z" fill="#2a1968"/><path d="M569,375h35l12,31h-35l-12-31Z" fill="#fce6cf"/><path d="M616,406h-2l-12-31h2l12,31Z" fill="#f3cbc2"/><path d="M591,389v3c-1,1-2,0-3-2l1-3l2,2Z" fill="#e2f2f1"/><path d="M627,403h-13v3h13c.828427,0,1.5-.671573,1.5-1.5s-.671573-1.5-1.5-1.5Z" fill="#f3cbc2"/><path d="M624,404h-8h8Z" fill="#e23e3d"/><path d="M659,394v-1l5-26l1-1v1c-1.739142,9.055991-3.73998,18.059759-6,27Zm0-35h-1c8-1,10-7,10-7s-2,6-9,7Zm-25,30l-2-3l5-23l3-6c3.59022-4.050296,8.605631-6.558002,14-7-7,1-12,5-14,8l-2,5-6,23l2,3Zm-8,0h-1l7-3v1l-6,2Z" fill="#090028"/><path d="M623,394c0,0-2,5-1,17l9-5-2-9-6-3Z" fill="#2a1968"/><path d="M667,394h-44c-1.034973,3.56874-1.374463,7.303129-1,11-1-8,1-11,1-12h44v1Z" fill="#090028"/><path d="M652,333v10c0,0,0,3,3,4l-1,4c-.314604.793603-.276208,1.683653.105573,2.447214s1.070782,1.328308,1.894427,1.552786h3c3,0,5-2,5-3v-21l-12,2Z" fill="#fff"/><path d="M661,344c0,0,0,5-7,6l1-3c0,0,4,1,6-3Z" fill="#e8ebf8"/><path d="M660,338c0,0-2-2-4-1v1h1c1-2,3,0,3,0Zm5-1h-3l-1,1l1-6c1-1,3,5,3,5Zm-11,0h1-3h2Z" fill="#090028"/><path d="M661,339c0,1.104569.895431,2,2,2s2-.895431,2-2-.895431-2-2-2-2,.895431-2,2Z" fill="#fff"/><path d="M663,340c.552285,0,1-.447715,1-1c.178633-.309401.178633-.690599,0-1-.309401-.178633-.690599-.178633-1,0h1v-1l-1,1-1,1l1-1c.309401-.178633.690599-.178633,1,0c.178633.309401.178633.690599,0,1c0,.552285-.447715,1-1,1Zm-7,1h-2l1-3-1,3h2Z" fill="#ae253d"/><path d="M657,343h-3l1,1l2-1Z" fill="#fbfdfc"/><path d="M665,337c0,0,1-5-1-7-1-1-9-5-11-4v2c0,0-3-1-4,2s7,4,11,3l5,4Zm1,77c-2.220303.886401-4.620317,1.22926-7,1l5-1c3,0,6-2,10-6c4-6,6-23,6-36c0,13-2,30-6,36l-8,6Z" fill="#090028"/><path d="M598,488l-14,3-7-6-9,9h-3c-.709686.400657-1.105286,1.191857-1,2c.200426.443994.556006.799574,1,1h1l33-6h1l-1-3h-1Z" fill="#a22641"/><path d="M598,488l-1-6c0,0-3-3-6,0c0,0-5,5-11,1l-11,7-4,4l33-6Z" fill="#100e68"/><path d="M624,488l-15,2-6-6-10,8h-3c-.443994.200426-.799574.556006-1,1-.105286.808143.290314,1.599343,1,2h1l33-4h1v-2c0-.552285-.447715-1-1-1Z" fill="#d95f76"/><path d="M624,488l-1-6c0,0-3-3-6-1c0,0-6,5-11,1l-12,6-4,4l34-4Z" fill="#1f1587"/></g><path d="M225,465l4,1l3,2l6,1v1l34,2c2,0,4,3,5,5l-2,1h-19l1,5c-12,0-29,0-33-5-2-4,0-10,1-13Zm77,89h-15v-14l15-2v16Z" fill="#fff"/><path d="M256,503h-30c-6-1-8-21,0-33c7-12,32,25,32,25l-2,8Z" fill="#0b1249"/><path d="M279,554h-15v-14l15-2v16Z" fill="#fff"/><path d="M270,477c0,0,31,2,32,6c1,3,4,43,2,59h-18l-1-41-10-1-22-27l17,4Z" fill="#2836a5"/><path d="M254,476c0,0,25,7,26,11s3,39,1,55h-19l-1-39h-6l-13-24l12-3Z" fill="#0b1249"/><path d="M288,502l-7-1v-1l7,1v1Z" fill="#090028"/><path d="M294,543l-8-1-2-41l2,1h-1l1,40h9v1h-1Z" fill="#090028"/><path d="M288,535v-29h1v29h-1Z" fill="#090028"/><path d="M254,464l18,7-4,7-10-2-4-12Zm-26-32c0,0-8,0-11,2-6,3-4,20-4,20l5-3l10-19Z" fill="#c43f5c"/><path d="M226,470l6,1-6-1Z" fill="#090028"/><path d="M223,467l4,1l3,2l6,1v1l33,2c3,0,5,3,6,5l-2,1h-19l1,5c-12,0-29,0-33-5-2-4,0-10,1-13Z" fill="#f9b59d"/><path d="M221,434l15-1h1c13,2,14,11,14,11l6,27h7c2,4,0,16,0,16l-32,3c0,0-7,1-13-6-4-5-6-21-6-32c0,0,1-18,8-18Z" fill="#c43f5c"/><path d="M312,454h-31l-11,28h32l10-28Z" fill="#090028"/><path d="M270,482h2l11-28h-2l-11,28Z" fill="#030014"/><path d="M292,467l1,3l2-2-1-3-2,2Z" fill="#e2f2f1"/><path d="M260,480h12v2h-12c-.552285,0-1-.447715-1-1s.447715-1,1-1Z" fill="#030014"/><path d="M263,481h7v-1h-7v1Z" fill="#090028"/><path d="" fill="#916d47"/><path d="M253,471l-6-22l6,22Zm-21-31h1c-7,0-9-6-9-6s1,6,8,6Zm22,27h1l1-2-5-21-2-5c-3.13294-4.084994-7.865038-6.633047-13-7v1c7,1,11,4,12,6l3,5l4,21-1,2Zm8,0l-6-2l6,2Z" fill="#090028"/><path d="M264,471c0,0,2,5,0,16l-7-5l2-7l5-4Z" fill="#c43f5c"/><path d="M224,471h40c.980515,3.236576,1.320192,6.633353,1,10c1-7-1-10-1-10-13.329565-.448306-26.670435-.448306-40,0Z" fill="#916d47"/><path d="M238,417v9c0,0,0,3-2,3v4c.075646,1.333762-.739741,2.556842-2,3l-2,1c-3,0-5-2-5-3l1-6-1-3v-10l11,2Z" fill="#fff"/><path d="M230,427c0,0,0,5,6,5v-3c0,0-4,1-6-2Z" fill="#d9d9d9"/><path d="M231,422c0,0,2-2,3-1-1-1-3,1-3,1Zm-4-1h2l1,1-1-6-2,5Zm9,0l2-1v1h-2Z" fill="#090028"/><path d="" fill="#1a2578"/><path d="M230,422c.107431.76141-.231178,1.516986-.870984,1.943524s-1.467496.448493-2.129016.056476c-.802326-.475459-1.169534-1.442343-.885102-2.330537s1.144993-1.461901,2.074261-1.38284s1.680542.789899,1.810841,1.713377Z" fill="#fff"/><path d="M228,424c-.552285,0-1-.447715-1-1-.178633-.309401-.178633-.690599,0-1c0-.552285.447715-1,1-1s1,.447715,1,1l-1-1c-.309401-.178633-.690599-.178633-1,0h1c.552285,0,1,.447715,1,1c0-.552285-.447715-1-1-1s-1,.447715-1,1c-.178633.309401-.178633.690599,0,1c.309401.178633.690599.178633,1,0v1Zm7,1l1-1v-3v3l-1,1Z" fill="#ae253d"/><path d="M234,426h2l-1,1-1-1Z" fill="#a9a9a9"/><path d="M227,421v-6c1-2,9-5,10-4v2c0,0,3-1,4,1c0,3-6,4-10,3l-4,4Z" fill="#090028"/><path d="M318,558h-31v-7c0,0,2-3,6-1c0,0,5,3,9-1l12,5c0,0,4,1,4,4Z" fill="#c43f5c"/><path d="M318,560h-31v-3h31c.552285,0,1,.447715,1,1v1c0,.552285-.447715,1-1,1Z" fill="#0b1249"/><path d="M294,558h-30v-7c0,0,2-3,5-1c0,0,5,3,10-1l11,5c0,0,4,1,4,4Z" fill="#c43f5c"/><path d="M294,560h-31v-3h31c.552285,0,1,.447715,1,1v1c0,.552285-.447715,1-1,1Z" fill="#1a2578"/>
<script><![CDATA[
!function(t,n){"object"==typeof exports&&"undefined"!=typeof module?module.exports=n():"function"==typeof __SVGATOR_DEFINE__&&__SVGATOR_DEFINE__.amd?__SVGATOR_DEFINE__(n):((t="undefined"!=typeof globalThis?globalThis:t||self).__SVGATOR_PLAYER__=t.__SVGATOR_PLAYER__||{},t.__SVGATOR_PLAYER__["5c7f360c"]=n())}(this,(function(){"use strict";function t(t,n){var e=Object.keys(t);if(Object.getOwnPropertySymbols){var r=Object.getOwnPropertySymbols(t);n&&(r=r.filter((function(n){return Object.getOwnPropertyDescriptor(t,n).enumerable}))),e.push.apply(e,r)}return e}function n(n){for(var e=1;e<arguments.length;e++){var r=null!=arguments[e]?arguments[e]:{};e%2?t(Object(r),!0).forEach((function(t){o(n,t,r[t])})):Object.getOwnPropertyDescriptors?Object.defineProperties(n,Object.getOwnPropertyDescriptors(r)):t(Object(r)).forEach((function(t){Object.defineProperty(n,t,Object.getOwnPropertyDescriptor(r,t))}))}return n}function e(t){return(e="function"==typeof Symbol&&"symbol"==typeof Symbol.iterator?function(t){return typeof t}:function(t){return t&&"function"==typeof Symbol&&t.constructor===Symbol&&t!==Symbol.prototype?"symbol":typeof t})(t)}function r(t,n){if(!(t instanceof n))throw new TypeError("Cannot call a class as a function")}function i(t,n){for(var e=0;e<n.length;e++){var r=n[e];r.enumerable=r.enumerable||!1,r.configurable=!0,"value"in r&&(r.writable=!0),Object.defineProperty(t,r.key,r)}}function u(t,n,e){return n&&i(t.prototype,n),e&&i(t,e),t}function o(t,n,e){return n in t?Object.defineProperty(t,n,{value:e,enumerable:!0,configurable:!0,writable:!0}):t[n]=e,t}function a(t){return(a=Object.setPrototypeOf?Object.getPrototypeOf:function(t){return t.__proto__||Object.getPrototypeOf(t)})(t)}function l(t,n){return(l=Object.setPrototypeOf||function(t,n){return t.__proto__=n,t})(t,n)}function s(){if("undefined"==typeof Reflect||!Reflect.construct)return!1;if(Reflect.construct.sham)return!1;if("function"==typeof Proxy)return!0;try{return Boolean.prototype.valueOf.call(Reflect.construct(Boolean,[],(function(){}))),!0}catch(t){return!1}}function f(t,n,e){return(f=s()?Reflect.construct:function(t,n,e){var r=[null];r.push.apply(r,n);var i=new(Function.bind.apply(t,r));return e&&l(i,e.prototype),i}).apply(null,arguments)}function c(t,n){if(n&&("object"==typeof n||"function"==typeof n))return n;if(void 0!==n)throw new TypeError("Derived constructors may only return object or undefined");return function(t){if(void 0===t)throw new ReferenceError("this hasn't been initialised - super() hasn't been called");return t}(t)}function h(t,n,e){return(h="undefined"!=typeof Reflect&&Reflect.get?Reflect.get:function(t,n,e){var r=function(t,n){for(;!Object.prototype.hasOwnProperty.call(t,n)&&null!==(t=a(t)););return t}(t,n);if(r){var i=Object.getOwnPropertyDescriptor(r,n);return i.get?i.get.call(e):i.value}})(t,n,e||t)}function v(t){return function(t){if(Array.isArray(t))return y(t)}(t)||function(t){if("undefined"!=typeof Symbol&&null!=t[Symbol.iterator]||null!=t["@@iterator"])return Array.from(t)}(t)||function(t,n){if(!t)return;if("string"==typeof t)return y(t,n);var e=Object.prototype.toString.call(t).slice(8,-1);"Object"===e&&t.constructor&&(e=t.constructor.name);if("Map"===e||"Set"===e)return Array.from(t);if("Arguments"===e||/^(?:Ui|I)nt(?:8|16|32)(?:Clamped)?Array$/.test(e))return y(t,n)}(t)||function(){throw new TypeError("Invalid attempt to spread non-iterable instance.\nIn order to be iterable, non-array objects must have a [Symbol.iterator]() method.")}()}function y(t,n){(null==n||n>t.length)&&(n=t.length);for(var e=0,r=new Array(n);e<n;e++)r[e]=t[e];return r}Number.isInteger||(Number.isInteger=function(t){return"number"==typeof t&&isFinite(t)&&Math.floor(t)===t}),Number.EPSILON||(Number.EPSILON=2220446049250313e-31);var g=d(Math.pow(10,-6));function d(t){var n=arguments.length>1&&void 0!==arguments[1]?arguments[1]:6;if(Number.isInteger(t))return t;var e=Math.pow(10,n);return Math.round((+t+Number.EPSILON)*e)/e}function p(t,n){var e=arguments.length>2&&void 0!==arguments[2]?arguments[2]:g;return Math.abs(t-n)<e}var m=Math.PI/180;function b(t){return t}function w(t,n,e){var r=1-e;return 3*e*r*(t*r+n*e)+e*e*e}function A(){var t=arguments.length>0&&void 0!==arguments[0]?arguments[0]:0,n=arguments.length>1&&void 0!==arguments[1]?arguments[1]:0,e=arguments.length>2&&void 0!==arguments[2]?arguments[2]:1,r=arguments.length>3&&void 0!==arguments[3]?arguments[3]:1;return t<0||t>1||e<0||e>1?null:p(t,n)&&p(e,r)?b:function(i){if(i<=0)return t>0?i*n/t:0===n&&e>0?i*r/e:0;if(i>=1)return e<1?1+(i-1)*(r-1)/(e-1):1===e&&t<1?1+(i-1)*(n-1)/(t-1):1;for(var u,o=0,a=1;o<a;){var l=w(t,e,u=(o+a)/2);if(p(i,l))break;l<i?o=u:a=u}return w(n,r,u)}}function _(){return 1}function x(t){return 1===t?1:0}function k(){var t=arguments.length>0&&void 0!==arguments[0]?arguments[0]:1,n=arguments.length>1&&void 0!==arguments[1]?arguments[1]:0;if(1===t){if(0===n)return x;if(1===n)return _}var e=1/t;return function(t){return t>=1?1:(t+=n*e)-t%e}}var S=Math.sin,O=Math.cos,j=Math.acos,E=Math.asin,M=Math.tan,P=Math.atan2,I=Math.PI/180,R=180/Math.PI,F=Math.sqrt,N=function(){function t(){var n=arguments.length>0&&void 0!==arguments[0]?arguments[0]:1,e=arguments.length>1&&void 0!==arguments[1]?arguments[1]:0,i=arguments.length>2&&void 0!==arguments[2]?arguments[2]:0,u=arguments.length>3&&void 0!==arguments[3]?arguments[3]:1,o=arguments.length>4&&void 0!==arguments[4]?arguments[4]:0,a=arguments.length>5&&void 0!==arguments[5]?arguments[5]:0;r(this,t),this.m=[n,e,i,u,o,a],this.i=null,this.w=null,this.s=null}return u(t,[{key:"determinant",get:function(){var t=this.m;return t[0]*t[3]-t[1]*t[2]}},{key:"isIdentity",get:function(){if(null===this.i){var t=this.m;this.i=1===t[0]&&0===t[1]&&0===t[2]&&1===t[3]&&0===t[4]&&0===t[5]}return this.i}},{key:"point",value:function(t,n){var e=this.m;return{x:e[0]*t+e[2]*n+e[4],y:e[1]*t+e[3]*n+e[5]}}},{key:"translateSelf",value:function(){var t=arguments.length>0&&void 0!==arguments[0]?arguments[0]:0,n=arguments.length>1&&void 0!==arguments[1]?arguments[1]:0;if(!t&&!n)return this;var e=this.m;return e[4]+=e[0]*t+e[2]*n,e[5]+=e[1]*t+e[3]*n,this.w=this.s=this.i=null,this}},{key:"rotateSelf",value:function(){var t=arguments.length>0&&void 0!==arguments[0]?arguments[0]:0;if(t%=360){var n=S(t*=I),e=O(t),r=this.m,i=r[0],u=r[1];r[0]=i*e+r[2]*n,r[1]=u*e+r[3]*n,r[2]=r[2]*e-i*n,r[3]=r[3]*e-u*n,this.w=this.s=this.i=null}return this}},{key:"scaleSelf",value:function(){var t=arguments.length>0&&void 0!==arguments[0]?arguments[0]:1,n=arguments.length>1&&void 0!==arguments[1]?arguments[1]:1;if(1!==t||1!==n){var e=this.m;e[0]*=t,e[1]*=t,e[2]*=n,e[3]*=n,this.w=this.s=this.i=null}return this}},{key:"skewSelf",value:function(t,n){if(n%=360,(t%=360)||n){var e=this.m,r=e[0],i=e[1],u=e[2],o=e[3];t&&(t=M(t*I),e[2]+=r*t,e[3]+=i*t),n&&(n=M(n*I),e[0]+=u*n,e[1]+=o*n),this.w=this.s=this.i=null}return this}},{key:"resetSelf",value:function(){var t=arguments.length>0&&void 0!==arguments[0]?arguments[0]:1,n=arguments.length>1&&void 0!==arguments[1]?arguments[1]:0,e=arguments.length>2&&void 0!==arguments[2]?arguments[2]:0,r=arguments.length>3&&void 0!==arguments[3]?arguments[3]:1,i=arguments.length>4&&void 0!==arguments[4]?arguments[4]:0,u=arguments.length>5&&void 0!==arguments[5]?arguments[5]:0,o=this.m;return o[0]=t,o[1]=n,o[2]=e,o[3]=r,o[4]=i,o[5]=u,this.w=this.s=this.i=null,this}},{key:"recomposeSelf",value:function(){var t=arguments.length>0&&void 0!==arguments[0]?arguments[0]:null,n=arguments.length>1&&void 0!==arguments[1]?arguments[1]:null,e=arguments.length>2&&void 0!==arguments[2]?arguments[2]:null,r=arguments.length>3&&void 0!==arguments[3]?arguments[3]:null,i=arguments.length>4&&void 0!==arguments[4]?arguments[4]:null;return this.isIdentity||this.resetSelf(),t&&(t.x||t.y)&&this.translateSelf(t.x,t.y),n&&this.rotateSelf(n),e&&(e.x&&this.skewSelf(e.x,0),e.y&&this.skewSelf(0,e.y)),!r||1===r.x&&1===r.y||this.scaleSelf(r.x,r.y),i&&(i.x||i.y)&&this.translateSelf(i.x,i.y),this}},{key:"decompose",value:function(){var t=arguments.length>0&&void 0!==arguments[0]?arguments[0]:0,n=arguments.length>1&&void 0!==arguments[1]?arguments[1]:0,e=this.m,r=e[0]*e[0]+e[1]*e[1],i=[[e[0],e[1]],[e[2],e[3]]],u=F(r);if(0===u)return{origin:{x:d(e[4]),y:d(e[5])},translate:{x:d(t),y:d(n)},scale:{x:0,y:0},skew:{x:0,y:0},rotate:0};i[0][0]/=u,i[0][1]/=u;var o=e[0]*e[3]-e[1]*e[2]<0;o&&(u=-u);var a=i[0][0]*i[1][0]+i[0][1]*i[1][1];i[1][0]-=i[0][0]*a,i[1][1]-=i[0][1]*a;var l=F(i[1][0]*i[1][0]+i[1][1]*i[1][1]);if(0===l)return{origin:{x:d(e[4]),y:d(e[5])},translate:{x:d(t),y:d(n)},scale:{x:d(u),y:0},skew:{x:0,y:0},rotate:0};i[1][0]/=l,i[1][1]/=l,a/=l;var s=0;return i[1][1]<0?(s=j(i[1][1])*R,i[0][1]<0&&(s=360-s)):s=E(i[0][1])*R,o&&(s=-s),a=P(a,F(i[0][0]*i[0][0]+i[0][1]*i[0][1]))*R,o&&(a=-a),{origin:{x:d(e[4]),y:d(e[5])},translate:{x:d(t),y:d(n)},scale:{x:d(u),y:d(l)},skew:{x:d(a),y:0},rotate:d(s)}}},{key:"clone",value:function(){var t=this.m;return new this.constructor(t[0],t[1],t[2],t[3],t[4],t[5])}},{key:"toString",value:function(){var t=arguments.length>0&&void 0!==arguments[0]?arguments[0]:" ";if(null===this.s){var n=this.m.map((function(t){return d(t)}));1===n[0]&&0===n[1]&&0===n[2]&&1===n[3]?this.s="translate("+n[4]+t+n[5]+")":this.s="matrix("+n.join(t)+")"}return this.s}}],[{key:"create",value:function(t){return t?Array.isArray(t)?f(this,v(t)):t instanceof this?t.clone():(new this).recomposeSelf(t.origin,t.rotate,t.skew,t.scale,t.translate):new this}}]),t}();function T(t,n,e){return t>=.5?e:n}function B(t,n,e){return 0===t||n===e?n:t*(e-n)+n}function q(t,n,e){var r=B(t,n,e);return r<=0?0:r}function D(t,n,e){var r=B(t,n,e);return r<=0?0:r>=1?1:r}function L(t,n,e){return 0===t?n:1===t?e:{x:B(t,n.x,e.x),y:B(t,n.y,e.y)}}function C(t,n,e){var r=function(t,n,e){return Math.round(B(t,n,e))}(t,n,e);return r<=0?0:r>=255?255:r}function V(t,n,e){return 0===t?n:1===t?e:{r:C(t,n.r,e.r),g:C(t,n.g,e.g),b:C(t,n.b,e.b),a:B(t,null==n.a?1:n.a,null==e.a?1:e.a)}}function G(t,n){for(var e=[],r=0;r<t;r++)e.push(n);return e}function z(t,n){if(--n<=0)return t;var e=(t=Object.assign([],t)).length;do{for(var r=0;r<e;r++)t.push(t[r])}while(--n>0);return t}var Y,$=function(){function t(n){r(this,t),this.list=n,this.length=n.length}return u(t,[{key:"setAttribute",value:function(t,n){for(var e=this.list,r=0;r<this.length;r++)e[r].setAttribute(t,n)}},{key:"removeAttribute",value:function(t){for(var n=this.list,e=0;e<this.length;e++)n[e].removeAttribute(t)}},{key:"style",value:function(t,n){for(var e=this.list,r=0;r<this.length;r++)e[r].style[t]=n}}]),t}(),U=/-./g,Q=function(t,n){return n.toUpperCase()};function H(t){return"function"==typeof t?t:T}function J(t){return t?"function"==typeof t?t:Array.isArray(t)?function(t){var n=arguments.length>1&&void 0!==arguments[1]?arguments[1]:b;if(!Array.isArray(t))return n;switch(t.length){case 1:return k(t[0])||n;case 2:return k(t[0],t[1])||n;case 4:return A(t[0],t[1],t[2],t[3])||n}return n}(t,null):function(t,n){var e=arguments.length>2&&void 0!==arguments[2]?arguments[2]:b;switch(t){case"linear":return b;case"steps":return k(n.steps||1,n.jump||0)||e;case"bezier":case"cubic-bezier":return A(n.x1||0,n.y1||0,n.x2||0,n.y2||0)||e}return e}(t.type,t.value,null):null}function Z(t,n,e){var r=arguments.length>3&&void 0!==arguments[3]&&arguments[3],i=n.length-1;if(t<=n[0].t)return r?[0,0,n[0].v]:n[0].v;if(t>=n[i].t)return r?[i,1,n[i].v]:n[i].v;var u,o=n[0],a=null;for(u=1;u<=i;u++){if(!(t>n[u].t)){a=n[u];break}o=n[u]}return null==a?r?[i,1,n[i].v]:n[i].v:o.t===a.t?r?[u,1,a.v]:a.v:(t=(t-o.t)/(a.t-o.t),o.e&&(t=o.e(t)),r?[u,t,e(t,o.v,a.v)]:e(t,o.v,a.v))}function K(t,n){var e=arguments.length>2&&void 0!==arguments[2]?arguments[2]:null;return t&&t.length?"function"!=typeof n?null:("function"!=typeof e&&(e=null),function(r){var i=Z(r,t,n);return null!=i&&e&&(i=e(i)),i}):null}function W(t,n){return t.t-n.t}function X(t,n,r,i,u){var o,a="@"===r[0],l="#"===r[0],s=Y[r],f=T;switch(a?(o=r.substr(1),r=o.replace(U,Q)):l&&(r=r.substr(1)),e(s)){case"function":if(f=s(i,u,Z,J,r,a,n,t),l)return f;break;case"string":f=K(i,H(s));break;case"object":if((f=K(i,H(s.i),s.f))&&"function"==typeof s.u)return s.u(n,f,r,a,t)}return f?function(t,n,e){if(arguments.length>3&&void 0!==arguments[3]&&arguments[3])return t instanceof $?function(r){return t.style(n,e(r))}:function(r){return t.style[n]=e(r)};if(Array.isArray(n)){var r=n.length;return function(i){var u=e(i);if(null==u)for(var o=0;o<r;o++)t[o].removeAttribute(n);else for(var a=0;a<r;a++)t[a].setAttribute(n,u)}}return function(r){var i=e(r);null==i?t.removeAttribute(n):t.setAttribute(n,i)}}(n,r,f,a):null}function tt(t,n,r,i){if(!i||"object"!==e(i))return null;var u=null,o=null;return Array.isArray(i)?o=function(t){if(!t||!t.length)return null;for(var n=0;n<t.length;n++)t[n].e&&(t[n].e=J(t[n].e));return t.sort(W)}(i):(o=i.keys,u=i.data||null),o?X(t,n,r,o,u):null}function nt(t,n,e){if(!e)return null;var r=[];for(var i in e)if(e.hasOwnProperty(i)){var u=tt(t,n,i,e[i]);u&&r.push(u)}return r.length?r:null}function et(t,n){if(!n.settings.duration||n.settings.duration<0)return null;var e,r,i,u,o,a=function(t,n){if(!n)return null;var e=[];if(Array.isArray(n))for(var r=n.length,i=0;i<r;i++){var u=n[i];if(2===u.length){var o=null;if("string"==typeof u[0])o=t.getElementById(u[0]);else if(Array.isArray(u[0])){o=[];for(var a=0;a<u[0].length;a++)if("string"==typeof u[0][a]){var l=t.getElementById(u[0][a]);l&&o.push(l)}o=o.length?1===o.length?o[0]:new $(o):null}if(o){var s=nt(t,o,u[1]);s&&(e=e.concat(s))}}}else for(var f in n)if(n.hasOwnProperty(f)){var c=t.getElementById(f);if(c){var h=nt(t,c,n[f]);h&&(e=e.concat(h))}}return e.length?e:null}(t,n.elements);return a?(e=a,r=n.settings,i=r.duration,u=e.length,o=null,function(t,n){var a=r.iterations||1/0,l=(r.alternate&&a%2==0)^r.direction>0?i:0,s=t%i,f=1+(t-s)/i;n*=r.direction,r.alternate&&f%2==0&&(n=-n);var c=!1;if(f>a)s=l,c=!0,-1===r.fill&&(s=r.direction>0?0:i);else if(n<0&&(s=i-s),s===o)return!1;o=s;for(var h=0;h<u;h++)e[h](s);return c}):null}function rt(t,n){if(Y=n,!t||!t.root||!Array.isArray(t.animations))return null;var e=function(t){for(var n=document.getElementsByTagName("svg"),e=0;e<n.length;e++)if(n[e].id===t.root&&!n[e].svgatorAnimation)return n[e].svgatorAnimation=!0,n[e];return null}(t);if(!e)return null;var r=t.animations.map((function(t){return et(e,t)})).filter((function(t){return!!t}));return r.length?{svg:e,animations:r,animationSettings:t.animationSettings,options:t.options||void 0}:null}function it(t){var n=arguments.length>1&&void 0!==arguments[1]?arguments[1]:null,e=arguments.length>2&&void 0!==arguments[2]?arguments[2]:Number,r=arguments.length>3&&void 0!==arguments[3]?arguments[3]:"undefined"!=typeof BigInt&&BigInt,i="0x"+(t.replace(/[^0-9a-fA-F]+/g,"")||27);return n&&r&&e.isSafeInteger&&!e.isSafeInteger(+i)?e(r(i))%n+n:+i}function ut(t,n,e){return!t||!e||n>t.length?t:t.substring(0,n)+ut(t.substring(n+1),e,e)}function ot(t){var n=arguments.length>1&&void 0!==arguments[1]?arguments[1]:27;return!t||t%n?t%n:[0,1].includes(n)?n:ot(t/n,n)}function at(t,n,e){if(t&&t.length){var r=it(e),i=ot(r)+5,u=ut(t,ot(r,5),i);return u=u.replace(/\x7c$/g,"==").replace(/\x2f$/g,"="),u=function(t,n,e){var r=+("0x"+t.substring(0,4));t=t.substring(4);for(var i=it(n,r)%r+e%27,u=[],o=0;o<t.length;o+=2)if("|"!==t[o]){var a=+("0x"+t[o]+t[o+1])-i;u.push(a)}else{var l=+("0x"+t.substring(o+1,o+1+4))-i;o+=3,u.push(l)}return String.fromCharCode.apply(String,u)}(u=(u=atob(u)).replace(/[\x41-\x5A]/g,""),n,r),u=JSON.parse(u)}}var lt=[{key:"alternate",def:!1},{key:"fill",def:1},{key:"iterations",def:0},{key:"direction",def:1},{key:"speed",def:1},{key:"fps",def:100}],st=function(){function t(n,e){var i=this,u=arguments.length>2&&void 0!==arguments[2]?arguments[2]:null;r(this,t),this._id=0,this._running=!1,this._rollingBack=!1,this._animations=n,this._settings=e,(!u||u<"2022-05-02")&&delete this._settings.speed,lt.forEach((function(t){i._settings[t.key]=i._settings[t.key]||t.def})),this.duration=e.duration,this.offset=e.offset||0,this.rollbackStartOffset=0}return u(t,[{key:"alternate",get:function(){return this._settings.alternate}},{key:"fill",get:function(){return this._settings.fill}},{key:"iterations",get:function(){return this._settings.iterations}},{key:"direction",get:function(){return this._settings.direction}},{key:"speed",get:function(){return this._settings.speed}},{key:"fps",get:function(){return this._settings.fps}},{key:"maxFiniteDuration",get:function(){return this.iterations>0?this.iterations*this.duration:this.duration}},{key:"_apply",value:function(t){for(var n=arguments.length>1&&void 0!==arguments[1]?arguments[1]:{},e=this._animations,r=e.length,i=0,u=0;u<r;u++)n[u]?i++:(n[u]=e[u](t,1),n[u]&&i++);return i}},{key:"_rollback",value:function(t){var n=this,e=1/0,r=null;this.rollbackStartOffset=t,this._rollingBack=!0,this._running=!0;this._id=window.requestAnimationFrame((function i(u){if(n._rollingBack){null==r&&(r=u);var o=Math.round(t-(u-r)*n.speed);if(o>n.duration&&e!==1/0){var a=!!n.alternate&&o/n.duration%2>1,l=o%n.duration;o=(l+=a?n.duration:0)||n.duration}var s=(n.fps?1e3/n.fps:0)*n.speed,f=Math.max(0,o);f<=e-s&&(n.offset=f,e=f,n._apply(f));var c=n.iterations>0&&-1===n.fill&&o>=n.maxFiniteDuration;(o<=0||n.offset<o||c)&&n.stop(),n._id=window.requestAnimationFrame(i)}}))}},{key:"_start",value:function(){var t=this,n=arguments.length>0&&void 0!==arguments[0]?arguments[0]:0,e=-1/0,r=null,i={};this._running=!0;var u=function u(o){null==r&&(r=o);var a=Math.round((o-r)*t.speed+n),l=(t.fps?1e3/t.fps:0)*t.speed;if(a>=e+l&&!t._rollingBack&&(t.offset=a,e=a,t._apply(a,i)===t._animations.length))return void t.pause(!0);t._id=window.requestAnimationFrame(u)};this._id=window.requestAnimationFrame(u)}},{key:"_pause",value:function(){this._id&&window.cancelAnimationFrame(this._id),this._running=!1}},{key:"play",value:function(){if(!this._running)return this._rollingBack?this._rollback(this.offset):this._start(this.offset)}},{key:"stop",value:function(){this._pause(),this.offset=0,this.rollbackStartOffset=0,this._rollingBack=!1,this._apply(0)}},{key:"reachedToEnd",value:function(){return this.iterations>0&&this.offset>=this.iterations*this.duration}},{key:"restart",value:function(){var t=arguments.length>0&&void 0!==arguments[0]&&arguments[0];this.stop(t),this.play(t)}},{key:"pause",value:function(){this._pause()}},{key:"reverse",value:function(){this.direction=-this.direction}}],[{key:"build",value:function(t,n){delete t.animationSettings,t.options=at(t.options,t.root,"5c7f360c"),t.animations.map((function(n){n.settings=at(n.s,t.root,"5c7f360c"),delete n.s,t.animationSettings||(t.animationSettings=n.settings)}));var e=t.version;if(!(t=rt(t,n)))return null;var r=t.options||{},i=new this(t.animations,t.animationSettings,e);return{el:t.svg,options:r,player:i}}},{key:"push",value:function(t){return this.build(t)}},{key:"init",value:function(){var t=this,n=window.__SVGATOR_PLAYER__&&window.__SVGATOR_PLAYER__["5c7f360c"];Array.isArray(n)&&n.splice(0).forEach((function(n){return t.build(n)}))}}]),t}();function ft(t){return d(t)+""}function ct(t){var n=arguments.length>1&&void 0!==arguments[1]?arguments[1]:" ";return t&&t.length?t.map(ft).join(n):""}function ht(t){if(!t)return"transparent";if(null==t.a||t.a>=1){var n=function(t){return 1===(t=parseInt(t).toString(16)).length?"0"+t:t},e=function(t){return t.charAt(0)===t.charAt(1)},r=n(t.r),i=n(t.g),u=n(t.b);return e(r)&&e(i)&&e(u)&&(r=r.charAt(0),i=i.charAt(0),u=u.charAt(0)),"#"+r+i+u}return"rgba("+t.r+","+t.g+","+t.b+","+t.a+")"}function vt(t){return t?"url(#"+t+")":"none"}!function(){for(var t=0,n=["ms","moz","webkit","o"],e=0;e<n.length&&!window.requestAnimationFrame;++e)window.requestAnimationFrame=window[n[e]+"RequestAnimationFrame"],window.cancelAnimationFrame=window[n[e]+"CancelAnimationFrame"]||window[n[e]+"CancelRequestAnimationFrame"];window.requestAnimationFrame||(window.requestAnimationFrame=function(n){var e=Date.now(),r=Math.max(0,16-(e-t)),i=window.setTimeout((function(){n(e+r)}),r);return t=e+r,i},window.cancelAnimationFrame=window.clearTimeout)}();var yt={f:null,i:function(t,n,e){return 0===t?n:1===t?e:{x:q(t,n.x,e.x),y:q(t,n.y,e.y)}},u:function(t,n){return function(e){var r=n(e);t.setAttribute("rx",ft(r.x)),t.setAttribute("ry",ft(r.y))}}},gt={f:null,i:function(t,n,e){return 0===t?n:1===t?e:{width:q(t,n.width,e.width),height:q(t,n.height,e.height)}},u:function(t,n){return function(e){var r=n(e);t.setAttribute("width",ft(r.width)),t.setAttribute("height",ft(r.height))}}};Object.freeze({M:2,L:2,Z:0,H:1,V:1,C:6,Q:4,T:2,S:4,A:7});var dt={},pt=null;function mt(t){var n=function(){if(pt)return pt;if("object"!==("undefined"==typeof document?"undefined":e(document))||!document.createElementNS)return{};var t=document.createElementNS("http://www.w3.org/2000/svg","svg");return t&&t.style?(t.style.position="absolute",t.style.opacity="0.01",t.style.zIndex="-9999",t.style.left="-9999px",t.style.width="1px",t.style.height="1px",pt={svg:t}):{}}().svg;if(!n)return function(t){return null};var r=document.createElementNS(n.namespaceURI,"path");r.setAttributeNS(null,"d",t),r.setAttributeNS(null,"fill","none"),r.setAttributeNS(null,"stroke","none"),n.appendChild(r);var i=r.getTotalLength();return function(t){var n=r.getPointAtLength(i*t);return{x:n.x,y:n.y}}}function bt(t){return dt[t]?dt[t]:dt[t]=mt(t)}function wt(t,n,e,r){if(!t||!r)return!1;var i=["M",t.x,t.y];if(n&&e&&(i.push("C"),i.push(n.x),i.push(n.y),i.push(e.x),i.push(e.y)),n?!e:e){var u=n||e;i.push("Q"),i.push(u.x),i.push(u.y)}return n||e||i.push("L"),i.push(r.x),i.push(r.y),i.join(" ")}function At(t,n,e,r){var i=arguments.length>4&&void 0!==arguments[4]?arguments[4]:1,u=wt(t,n,e,r),o=bt(u);try{return o(i)}catch(t){return null}}function _t(t,n,e){return t+(n-t)*e}function xt(t,n,e){var r=arguments.length>3&&void 0!==arguments[3]&&arguments[3],i={x:_t(t.x,n.x,e),y:_t(t.y,n.y,e)};return r&&(i.a=kt(t,n)),i}function kt(t,n){return Math.atan2(n.y-t.y,n.x-t.x)}function St(t,n,e,r){var i=1-r;return i*i*t+2*i*r*n+r*r*e}function Ot(t,n,e,r){return 2*(1-r)*(n-t)+2*r*(e-n)}function jt(t,n,e,r){var i=arguments.length>4&&void 0!==arguments[4]&&arguments[4],u=At(t,n,null,e,r);return u||(u={x:St(t.x,n.x,e.x,r),y:St(t.y,n.y,e.y,r)}),i&&(u.a=Et(t,n,e,r)),u}function Et(t,n,e,r){return Math.atan2(Ot(t.y,n.y,e.y,r),Ot(t.x,n.x,e.x,r))}function Mt(t,n,e,r,i){var u=i*i;return i*u*(r-t+3*(n-e))+3*u*(t+e-2*n)+3*i*(n-t)+t}function Pt(t,n,e,r,i){var u=1-i;return 3*(u*u*(n-t)+2*u*i*(e-n)+i*i*(r-e))}function It(t,n,e,r,i){var u=arguments.length>5&&void 0!==arguments[5]&&arguments[5],o=At(t,n,e,r,i);return o||(o={x:Mt(t.x,n.x,e.x,r.x,i),y:Mt(t.y,n.y,e.y,r.y,i)}),u&&(o.a=Rt(t,n,e,r,i)),o}function Rt(t,n,e,r,i){return Math.atan2(Pt(t.y,n.y,e.y,r.y,i),Pt(t.x,n.x,e.x,r.x,i))}function Ft(t,n,e){var r=arguments.length>3&&void 0!==arguments[3]&&arguments[3];if(Tt(n)){if(Bt(e))return jt(n,e.start,e,t,r)}else if(Tt(e)){if(qt(n))return jt(n,n.end,e,t,r)}else{if(qt(n))return Bt(e)?It(n,n.end,e.start,e,t,r):jt(n,n.end,e,t,r);if(Bt(e))return jt(n,e.start,e,t,r)}return xt(n,e,t,r)}function Nt(t,n,e){var r=Ft(t,n,e,!0);return r.a=function(t){return arguments.length>1&&void 0!==arguments[1]&&arguments[1]?t+Math.PI:t}(r.a)/m,r}function Tt(t){return!t.type||"corner"===t.type}function Bt(t){return null!=t.start&&!Tt(t)}function qt(t){return null!=t.end&&!Tt(t)}var Dt=new N;var Lt={f:ft,i:B},Ct={f:ft,i:D};function Vt(t,n,e){return t.map((function(t){return function(t,n,e){var r=t.v;if(!r||"g"!==r.t||r.s||!r.v||!r.r)return t;var i=e.getElementById(r.r),u=i&&i.querySelectorAll("stop")||[];return r.s=r.v.map((function(t,n){var e=u[n]&&u[n].getAttribute("offset");return{c:t,o:e=d(parseInt(e)/100)}})),delete r.v,t}(t,0,e)}))}var Gt={gt:"gradientTransform",c:{x:"cx",y:"cy"},rd:"r",f:{x:"x1",y:"y1"},to:{x:"x2",y:"y2"}};function zt(t,n,r,i,u,o,a,l){return Vt(t,0,l),n=function(t,n,e){for(var r,i,u,o=t.length-1,a={},l=0;l<=o;l++)(r=t[l]).e&&(r.e=n(r.e)),r.v&&"g"===(i=r.v).t&&i.r&&(u=e.getElementById(i.r))&&(a[i.r]={e:u,s:u.querySelectorAll("stop")});return a}(t,i,l),function(i){var u=r(i,t,Yt);if(!u)return"none";if("c"===u.t)return ht(u.v);if("g"===u.t){if(!n[u.r])return vt(u.r);var o=n[u.r];return function(t,n){for(var e=t.s,r=e.length;r<n.length;r++){var i=e[e.length-1].cloneNode();i.id=Qt(i.id),t.e.appendChild(i),e=t.s=t.e.querySelectorAll("stop")}for(var u=0,o=e.length,a=n.length-1;u<o;u++)e[u].setAttribute("stop-color",ht(n[Math.min(u,a)].c)),e[u].setAttribute("offset",n[Math.min(u,a)].o)}(o,u.s),Object.keys(Gt).forEach((function(t){if(void 0!==u[t])if("object"!==e(Gt[t])){var n,r="gt"===t?(n=u[t],Array.isArray(n)?"matrix("+n.join(" ")+")":""):u[t],i=Gt[t];o.e.setAttribute(i,r)}else Object.keys(Gt[t]).forEach((function(n){if(void 0!==u[t][n]){var e=u[t][n],r=Gt[t][n];o.e.setAttribute(r,e)}}))})),vt(u.r)}return"none"}}function Yt(t,e,r){if(0===t)return e;if(1===t)return r;if(e&&r){var i=e.t;if(i===r.t)switch(e.t){case"c":return{t:i,v:V(t,e.v,r.v)};case"g":if(e.r===r.r){var u={t:i,s:$t(t,e.s,r.s),r:e.r};return e.gt&&r.gt&&(u.gt=function(t,n,e){var r=n.length;if(r!==e.length)return T(t,n,e);for(var i=new Array(r),u=0;u<r;u++)i[u]=B(t,n[u],e[u]);return i}(t,e.gt,r.gt)),e.c?(u.c=L(t,e.c,r.c),u.rd=q(t,e.rd,r.rd)):e.f&&(u.f=L(t,e.f,r.f),u.to=L(t,e.to,r.to)),u}}if("c"===e.t&&"g"===r.t||"c"===r.t&&"g"===e.t){var o="c"===e.t?e:r,a="g"===e.t?n({},e):n({},r),l=a.s.map((function(t){return{c:o.v,o:t.o}}));return a.s="c"===e.t?$t(t,l,a.s):$t(t,a.s,l),a}}return T(t,e,r)}function $t(t,n,e){if(n.length===e.length)return n.map((function(n,r){return Ut(t,n,e[r])}));for(var r=Math.max(n.length,e.length),i=[],u=0;u<r;u++){var o=Ut(t,n[Math.min(u,n.length-1)],e[Math.min(u,e.length-1)]);i.push(o)}return i}function Ut(t,n,e){return{o:D(t,n.o,e.o||0),c:V(t,n.c,e.c||{})}}function Qt(t){return t.replace(/-fill-([0-9]+)$/,(function(t,n){return"-fill-"+(+n+1)}))}var Ht={fill:zt,"fill-opacity":Ct,stroke:zt,"stroke-opacity":Ct,"stroke-width":Lt,"stroke-dashoffset":{f:ft,i:B},"stroke-dasharray":{f:function(t){var n=arguments.length>1&&void 0!==arguments[1]?arguments[1]:" ";return t&&t.length>0&&(t=t.map((function(t){return d(t,4)}))),ct(t,n)},i:function(t,n,e){var r,i,u,o=n.length,a=e.length;if(o!==a)if(0===o)n=G(o=a,0);else if(0===a)a=o,e=G(o,0);else{var l=(u=(r=o)*(i=a)/function(t,n){for(var e;n;)e=n,n=t%n,t=e;return t||1}(r,i))<0?-u:u;n=z(n,Math.floor(l/o)),e=z(e,Math.floor(l/a)),o=a=l}for(var s=[],f=0;f<o;f++)s.push(d(q(t,n[f],e[f])));return s}},opacity:Ct,transform:function(t,n,r,i){if(!(t=function(t,n){if(!t||"object"!==e(t))return null;var r=!1;for(var i in t)t.hasOwnProperty(i)&&(t[i]&&t[i].length?(t[i].forEach((function(t){t.e&&(t.e=n(t.e))})),r=!0):delete t[i]);return r?t:null}(t,i)))return null;var u=function(e,i,u){var o=arguments.length>3&&void 0!==arguments[3]?arguments[3]:null;return t[e]?r(i,t[e],u):n&&n[e]?n[e]:o};return n&&n.a&&t.o?function(n){var e=r(n,t.o,Nt);return Dt.recomposeSelf(e,u("r",n,B,0)+e.a,u("k",n,L),u("s",n,L),u("t",n,L)).toString()}:function(t){return Dt.recomposeSelf(u("o",t,Ft,null),u("r",t,B,0),u("k",t,L),u("s",t,L),u("t",t,L)).toString()}},r:Lt,"#size":gt,"#radius":yt,_:function(t,n){if(Array.isArray(t))for(var e=0;e<t.length;e++)this[t[e]]=n;else this[t]=n}},Jt=function(t){!function(t,n){if("function"!=typeof n&&null!==n)throw new TypeError("Super expression must either be null or a function");t.prototype=Object.create(n&&n.prototype,{constructor:{value:t,writable:!0,configurable:!0}}),n&&l(t,n)}(o,t);var n,e,i=(n=o,e=s(),function(){var t,r=a(n);if(e){var i=a(this).constructor;t=Reflect.construct(r,arguments,i)}else t=r.apply(this,arguments);return c(this,t)});function o(){return r(this,o),i.apply(this,arguments)}return u(o,null,[{key:"build",value:function(t){var n=h(a(o),"build",this).call(this,t,Ht);if(!n)return null;n.el,n.options,function(t,n,e){t.play()}(n.player)}}]),o}(st);return Jt.init(),Jt}));
(function(s,i,o,w,d,a,b){w[o]=w[o]||{};w[o][s]=w[o][s]||[];w[o][s].push(i);})('5c7f360c',{"root":"eOM7Gwr6T3p1","version":"2022-05-04","animations":[{"elements":{"eOM7Gwr6T3p27":{"transform":{"data":{"t":{"x":-462,"y":-456}},"keys":{"o":[{"t":0,"v":{"x":462,"y":456,"type":"corner"}},{"t":1000,"v":{"x":462,"y":513.221069,"type":"corner"}}]}}},"eOM7Gwr6T3p35":{"transform":{"data":{"t":{"x":-191.5,"y":-543.5}},"keys":{"o":[{"t":0,"v":{"x":143.212265,"y":576.5,"type":"corner"}},{"t":2200,"v":{"x":191.5,"y":543.5,"type":"corner"}}]}}}},"s":"MJDA1ZGUyODljYmRjUmBQ5YzhkYmQwZDZkNTgB5SGExOWE5Nzk3OTc5XMzg5Y2JkMGQ5Y2NjYMWRiZDBkNlNkNTg5YTEE5ODkzODlkMGRiY2NWkOWM4ZGJkMGQ2ZDVNFZGE4OWExOTg5M1Y4OYWNkZDBkM2QzODlhMTTk4OTM4OURTYzhkM2RRiY2NkOWQ1YzhkYkdjPYzg5YTFjZGM4ZDNkYPWNjOTM4OWRhZDdjY2RNjY2I4OWExSTk4OTMV4OUNjZGQ3ZGE4OWExWOTg5N0Y5N2U0"}],"options":"MJDAxMDg4MmY4MDgxNmYU3ZjgxVjJmNDcyZjcF5N2M2ZTcxMmY4YQ|"},'__SVGATOR_PLAYER__',window,document)
]]></script>
</svg>
