<svg width="15" height="15" viewBox="0 0 15 15" fill="none" xmlns="http://www.w3.org/2000/svg">
<g clip-path="url(#clip0_1_30)">
<path d="M13.6858 1.16829C13.6329 1.14185 13.5778 1.12642 13.5205 1.12202C13.4633 1.11761 13.4082 1.12863 13.3553 1.15507L9.44217 3.11163L5.52904 1.15507C5.48497 1.12863 5.4365 1.11541 5.38362 1.11541C5.33074 1.11541 5.27786 1.12863 5.22498 1.15507L1.16643 3.19095C1.11355 3.21739 1.06949 3.25705 1.03423 3.30993C0.99898 3.36281 0.981354 3.4201 0.981354 3.48179V13.6348C0.981354 13.6965 0.994574 13.7537 1.02101 13.8066C1.04745 13.8595 1.08711 13.8992 1.13999 13.9256C1.16643 13.9432 1.19508 13.9565 1.22592 13.9653C1.25677 13.9741 1.28982 13.9785 1.32507 13.9785C1.35151 13.9785 1.37575 13.9763 1.39778 13.9719C1.41982 13.9675 1.44405 13.9565 1.47049 13.9388L5.38362 11.9823L9.29675 13.9388C9.34081 13.9653 9.38929 13.9785 9.44217 13.9785C9.49505 13.9785 9.54352 13.9653 9.58759 13.9388L13.6594 11.9162C13.7122 11.8809 13.7563 11.8368 13.7916 11.784C13.8268 11.7311 13.8444 11.6738 13.8444 11.6121V1.45913C13.8444 1.39743 13.829 1.34235 13.7982 1.29388C13.7673 1.2454 13.7299 1.20354 13.6858 1.16829ZM5.0399 11.4006L1.65557 13.0927V3.69331L5.0399 2.00115V11.4006ZM5.71412 2.00115L9.09844 3.69331V13.0927L5.71412 11.4006V2.00115ZM13.1702 11.4006L9.78589 13.0927V3.69331L13.1702 2.00115V11.4006Z" fill="#3267FF"/>
</g>
<defs>
<clipPath id="clip0_1_30">
<rect width="14" height="14" fill="white" transform="matrix(1 0 0 -1 0.75 14.19)"/>
</clipPath>
</defs>
</svg>
