<svg width="25" height="25" fill="none" xmlns="http://www.w3.org/2000/svg"><path d="M6.254 3.601a1.65 1.65 0 00-1.065-.385 1.65 1.65 0 00-1.066.385l-.045.023-.023.023L1.79 5.98l.023.023a2.213 2.213 0 00-.68 1.156c-.106.453-.083.883.068 1.291v.023c.408 1.178 1.046 2.504 1.915 3.977.869 1.473 1.983 2.89 3.343 4.25 2.236 2.236 4.978 3.988 8.226 5.257h.023c.922.318 1.76.152 2.516-.498l2.289-2.29a1.52 1.52 0 00.453-1.12c0-.447-.151-.82-.453-1.123l-2.947-2.946-.022-.045a1.538 1.538 0 00-1.133-.454 1.54 1.54 0 00-1.134.454l-1.45 1.45a11.768 11.768 0 01-2.969-2.04c-.83-.785-1.503-1.767-2.017-2.946l1.45-1.45a1.51 1.51 0 00.454-1.11c0-.439-.159-.809-.476-1.111l.023-.023-.068-.068L6.3 3.623 6.255 3.6zM5.03 4.735c.06-.046.113-.068.159-.068.045 0 .098.022.158.068l2.97 3.036c.044.046.03.099-.046.16L6.458 9.742l-.34.317.158.454c.06.166.155.389.284.668.128.28.415.763.86 1.45a10.24 10.24 0 001.44 1.78l.159.136c.498.453 1.053.88 1.665 1.28.612.4 1.1.684 1.462.85l.544.25.453.203 2.153-2.153c.06-.06.099-.09.114-.09s.052.03.113.09l2.969 2.97c.06.06.09.093.09.101 0 .008-.03.042-.09.102l-2.221 2.221c-.318.272-.688.34-1.11.204-3.068-1.209-5.629-2.84-7.683-4.895-1.27-1.27-2.312-2.603-3.128-4-.816-1.398-1.413-2.633-1.79-3.706-.136-.377-.06-.695.226-.951l.046-.046L5.03 4.735z" fill="#3267FF"/></svg>