<svg width="17" height="18" fill="none" xmlns="http://www.w3.org/2000/svg"><path d="M3.637.941v.726h-2.9V17.62H16.69V1.667h-2.9V.94h-1.45v.726H5.088V.94h-1.45zm-1.45 2.176h1.45v.725h1.45v-.725h7.253v.725h1.45v-.725h1.45v1.45H2.188v-1.45zm0 2.9h13.054v10.154H2.187V6.018zm4.351 1.451v1.45h1.45v-1.45h-1.45zm2.901 0v1.45h1.45v-1.45H9.44zm2.901 0v1.45h1.45v-1.45h-1.45zM3.637 10.37v1.45h1.45v-1.45h-1.45zm2.901 0v1.45h1.45v-1.45h-1.45zm2.901 0v1.45h1.45v-1.45H9.44zm2.901 0v1.45h1.45v-1.45h-1.45zm-8.703 2.9v1.45h1.45v-1.45h-1.45zm2.901 0v1.45h1.45v-1.45h-1.45zm2.901 0v1.45h1.45v-1.45H9.44z" fill="#3267FF"/></svg>