<svg width="15" height="13" viewBox="0 0 15 13" fill="none" xmlns="http://www.w3.org/2000/svg">
<path d="M13.2007 0.789624H11.5086V0.459124C11.5086 0.362177 11.4755 0.280653 11.4094 0.214553C11.3433 0.148453 11.2662 0.115403 11.1781 0.115403C11.0811 0.115403 10.9996 0.148453 10.9335 0.214553C10.8674 0.280653 10.8343 0.362177 10.8343 0.459124V0.789624H4.06569V0.459124C4.06569 0.362177 4.03264 0.280653 3.96654 0.214553C3.90044 0.148453 3.81892 0.115403 3.72197 0.115403C3.63384 0.115403 3.55672 0.148453 3.49062 0.214553C3.42452 0.280653 3.39147 0.362177 3.39147 0.459124V0.789624H1.69931C1.41728 0.789624 1.17712 0.888774 0.978816 1.08707C0.780516 1.28537 0.681366 1.52554 0.681366 1.80757V11.2863C0.681366 11.5683 0.780516 11.8085 0.978816 12.0068C1.17712 12.2051 1.41728 12.3043 1.69931 12.3043H13.2007C13.4828 12.3043 13.7229 12.2051 13.9212 12.0068C14.1195 11.8085 14.2187 11.5683 14.2187 11.2863V1.80757C14.2187 1.52554 14.1195 1.28537 13.9212 1.08707C13.7229 0.888774 13.4828 0.789624 13.2007 0.789624ZM1.69931 1.47707H3.39147V2.48179C3.39147 2.57873 3.42452 2.66026 3.49062 2.72636C3.55672 2.79246 3.63384 2.82551 3.72197 2.82551C3.81892 2.82551 3.90044 2.79246 3.96654 2.72636C4.03264 2.66026 4.06569 2.57873 4.06569 2.48179V1.47707H10.8343V2.48179C10.8343 2.57873 10.8674 2.66026 10.9335 2.72636C10.9996 2.79246 11.0811 2.82551 11.1781 2.82551C11.2662 2.82551 11.3433 2.79246 11.4094 2.72636C11.4755 2.66026 11.5086 2.57873 11.5086 2.48179V1.47707H13.2007C13.2977 1.47707 13.3792 1.51011 13.4453 1.57621C13.5114 1.64231 13.5444 1.71943 13.5444 1.80757V3.49973H1.35559V1.80757C1.35559 1.71943 1.38864 1.64231 1.45474 1.57621C1.52084 1.51011 1.60236 1.47707 1.69931 1.47707ZM13.2007 11.63H1.69931C1.60236 11.63 1.52084 11.597 1.45474 11.5309C1.38864 11.4648 1.35559 11.3833 1.35559 11.2863V4.17395H13.5444V11.2863C13.5444 11.3833 13.5114 11.4648 13.4453 11.5309C13.3792 11.597 13.2977 11.63 13.2007 11.63ZM5.75785 6.20983H5.08363C4.98669 6.20983 4.90516 6.17678 4.83906 6.11068C4.77296 6.04458 4.73991 5.96306 4.73991 5.86611C4.73991 5.77798 4.77296 5.70086 4.83906 5.63476C4.90516 5.56866 4.98669 5.53561 5.08363 5.53561H5.75785C5.8548 5.53561 5.93632 5.56866 6.00242 5.63476C6.06852 5.70086 6.10157 5.77798 6.10157 5.86611C6.10157 5.96306 6.06852 6.04458 6.00242 6.11068C5.93632 6.17678 5.8548 6.20983 5.75785 6.20983ZM7.79374 6.20983H7.1063C7.01816 6.20983 6.94104 6.17678 6.87494 6.11068C6.80884 6.04458 6.77579 5.96306 6.77579 5.86611C6.77579 5.77798 6.80884 5.70086 6.87494 5.63476C6.94104 5.56866 7.01816 5.53561 7.1063 5.53561H7.79374C7.88187 5.53561 7.95899 5.56866 8.02509 5.63476C8.09119 5.70086 8.12424 5.77798 8.12424 5.86611C8.12424 5.96306 8.09119 6.04458 8.02509 6.11068C7.95899 6.17678 7.88187 6.20983 7.79374 6.20983ZM9.8164 6.20983H9.14218C9.04523 6.20983 8.96371 6.17678 8.89761 6.11068C8.83151 6.04458 8.79846 5.96306 8.79846 5.86611C8.79846 5.77798 8.83151 5.70086 8.89761 5.63476C8.96371 5.56866 9.04523 5.53561 9.14218 5.53561H9.8164C9.91335 5.53561 9.99487 5.56866 10.061 5.63476C10.1271 5.70086 10.1601 5.77798 10.1601 5.86611C10.1601 5.96306 10.1271 6.04458 10.061 6.11068C9.99487 6.17678 9.91335 6.20983 9.8164 6.20983ZM11.8523 6.20983H11.1781C11.0811 6.20983 10.9996 6.17678 10.9335 6.11068C10.8674 6.04458 10.8343 5.96306 10.8343 5.86611C10.8343 5.77798 10.8674 5.70086 10.9335 5.63476C10.9996 5.56866 11.0811 5.53561 11.1781 5.53561H11.8523C11.9404 5.53561 12.0175 5.56866 12.0836 5.63476C12.1497 5.70086 12.1828 5.77798 12.1828 5.86611C12.1828 5.96306 12.1497 6.04458 12.0836 6.11068C12.0175 6.17678 11.9404 6.20983 11.8523 6.20983ZM3.72197 7.55827H3.04775C2.95962 7.55827 2.8825 7.52522 2.8164 7.45912C2.7503 7.39302 2.71725 7.31591 2.71725 7.22777C2.71725 7.13083 2.7503 7.0493 2.8164 6.9832C2.8825 6.9171 2.95962 6.88405 3.04775 6.88405H3.72197C3.81892 6.88405 3.90044 6.9171 3.96654 6.9832C4.03264 7.0493 4.06569 7.13083 4.06569 7.22777C4.06569 7.31591 4.03264 7.39302 3.96654 7.45912C3.90044 7.52522 3.81892 7.55827 3.72197 7.55827ZM5.75785 7.55827H5.08363C4.98669 7.55827 4.90516 7.52522 4.83906 7.45912C4.77296 7.39302 4.73991 7.31591 4.73991 7.22777C4.73991 7.13083 4.77296 7.0493 4.83906 6.9832C4.90516 6.9171 4.98669 6.88405 5.08363 6.88405H5.75785C5.8548 6.88405 5.93632 6.9171 6.00242 6.9832C6.06852 7.0493 6.10157 7.13083 6.10157 7.22777C6.10157 7.31591 6.06852 7.39302 6.00242 7.45912C5.93632 7.52522 5.8548 7.55827 5.75785 7.55827ZM7.79374 7.55827H7.1063C7.01816 7.55827 6.94104 7.52522 6.87494 7.45912C6.80884 7.39302 6.77579 7.31591 6.77579 7.22777C6.77579 7.13083 6.80884 7.0493 6.87494 6.9832C6.94104 6.9171 7.01816 6.88405 7.1063 6.88405H7.79374C7.88187 6.88405 7.95899 6.9171 8.02509 6.9832C8.09119 7.0493 8.12424 7.13083 8.12424 7.22777C8.12424 7.31591 8.09119 7.39302 8.02509 7.45912C7.95899 7.52522 7.88187 7.55827 7.79374 7.55827ZM9.8164 7.55827H9.14218C9.04523 7.55827 8.96371 7.52522 8.89761 7.45912C8.83151 7.39302 8.79846 7.31591 8.79846 7.22777C8.79846 7.13083 8.83151 7.0493 8.89761 6.9832C8.96371 6.9171 9.04523 6.88405 9.14218 6.88405H9.8164C9.91335 6.88405 9.99487 6.9171 10.061 6.9832C10.1271 7.0493 10.1601 7.13083 10.1601 7.22777C10.1601 7.31591 10.1271 7.39302 10.061 7.45912C9.99487 7.52522 9.91335 7.55827 9.8164 7.55827ZM11.8523 7.55827H11.1781C11.0811 7.55827 10.9996 7.52522 10.9335 7.45912C10.8674 7.39302 10.8343 7.31591 10.8343 7.22777C10.8343 7.13083 10.8674 7.0493 10.9335 6.9832C10.9996 6.9171 11.0811 6.88405 11.1781 6.88405H11.8523C11.9404 6.88405 12.0175 6.9171 12.0836 6.9832C12.1497 7.0493 12.1828 7.13083 12.1828 7.22777C12.1828 7.31591 12.1497 7.39302 12.0836 7.45912C12.0175 7.52522 11.9404 7.55827 11.8523 7.55827ZM3.72197 8.91994H3.04775C2.95962 8.91994 2.8825 8.88689 2.8164 8.82079C2.7503 8.75469 2.71725 8.67316 2.71725 8.57622C2.71725 8.48808 2.7503 8.41096 2.8164 8.34486C2.8825 8.27876 2.95962 8.24571 3.04775 8.24571H3.72197C3.81892 8.24571 3.90044 8.27876 3.96654 8.34486C4.03264 8.41096 4.06569 8.48808 4.06569 8.57622C4.06569 8.67316 4.03264 8.75469 3.96654 8.82079C3.90044 8.88689 3.81892 8.91994 3.72197 8.91994ZM5.75785 8.91994H5.08363C4.98669 8.91994 4.90516 8.88689 4.83906 8.82079C4.77296 8.75469 4.73991 8.67316 4.73991 8.57622C4.73991 8.48808 4.77296 8.41096 4.83906 8.34486C4.90516 8.27876 4.98669 8.24571 5.08363 8.24571H5.75785C5.8548 8.24571 5.93632 8.27876 6.00242 8.34486C6.06852 8.41096 6.10157 8.48808 6.10157 8.57622C6.10157 8.67316 6.06852 8.75469 6.00242 8.82079C5.93632 8.88689 5.8548 8.91994 5.75785 8.91994ZM7.79374 8.91994H7.1063C7.01816 8.91994 6.94104 8.88689 6.87494 8.82079C6.80884 8.75469 6.77579 8.67316 6.77579 8.57622C6.77579 8.48808 6.80884 8.41096 6.87494 8.34486C6.94104 8.27876 7.01816 8.24571 7.1063 8.24571H7.79374C7.88187 8.24571 7.95899 8.27876 8.02509 8.34486C8.09119 8.41096 8.12424 8.48808 8.12424 8.57622C8.12424 8.67316 8.09119 8.75469 8.02509 8.82079C7.95899 8.88689 7.88187 8.91994 7.79374 8.91994ZM9.8164 8.91994H9.14218C9.04523 8.91994 8.96371 8.88689 8.89761 8.82079C8.83151 8.75469 8.79846 8.67316 8.79846 8.57622C8.79846 8.48808 8.83151 8.41096 8.89761 8.34486C8.96371 8.27876 9.04523 8.24571 9.14218 8.24571H9.8164C9.91335 8.24571 9.99487 8.27876 10.061 8.34486C10.1271 8.41096 10.1601 8.48808 10.1601 8.57622C10.1601 8.67316 10.1271 8.75469 10.061 8.82079C9.99487 8.88689 9.91335 8.91994 9.8164 8.91994ZM11.8523 8.91994H11.1781C11.0811 8.91994 10.9996 8.88689 10.9335 8.82079C10.8674 8.75469 10.8343 8.67316 10.8343 8.57622C10.8343 8.48808 10.8674 8.41096 10.9335 8.34486C10.9996 8.27876 11.0811 8.24571 11.1781 8.24571H11.8523C11.9404 8.24571 12.0175 8.27876 12.0836 8.34486C12.1497 8.41096 12.1828 8.48808 12.1828 8.57622C12.1828 8.67316 12.1497 8.75469 12.0836 8.82079C12.0175 8.88689 11.9404 8.91994 11.8523 8.91994ZM3.72197 10.2684H3.04775C2.95962 10.2684 2.8825 10.2353 2.8164 10.1692C2.7503 10.1031 2.71725 10.026 2.71725 9.93788C2.71725 9.84093 2.7503 9.75941 2.8164 9.69331C2.8825 9.62721 2.95962 9.59416 3.04775 9.59416H3.72197C3.81892 9.59416 3.90044 9.62721 3.96654 9.69331C4.03264 9.75941 4.06569 9.84093 4.06569 9.93788C4.06569 10.026 4.03264 10.1031 3.96654 10.1692C3.90044 10.2353 3.81892 10.2684 3.72197 10.2684ZM5.75785 10.2684H5.08363C4.98669 10.2684 4.90516 10.2353 4.83906 10.1692C4.77296 10.1031 4.73991 10.026 4.73991 9.93788C4.73991 9.84093 4.77296 9.75941 4.83906 9.69331C4.90516 9.62721 4.98669 9.59416 5.08363 9.59416H5.75785C5.8548 9.59416 5.93632 9.62721 6.00242 9.69331C6.06852 9.75941 6.10157 9.84093 6.10157 9.93788C6.10157 10.026 6.06852 10.1031 6.00242 10.1692C5.93632 10.2353 5.8548 10.2684 5.75785 10.2684ZM7.79374 10.2684H7.1063C7.01816 10.2684 6.94104 10.2353 6.87494 10.1692C6.80884 10.1031 6.77579 10.026 6.77579 9.93788C6.77579 9.84093 6.80884 9.75941 6.87494 9.69331C6.94104 9.62721 7.01816 9.59416 7.1063 9.59416H7.79374C7.88187 9.59416 7.95899 9.62721 8.02509 9.69331C8.09119 9.75941 8.12424 9.84093 8.12424 9.93788C8.12424 10.026 8.09119 10.1031 8.02509 10.1692C7.95899 10.2353 7.88187 10.2684 7.79374 10.2684ZM9.8164 10.2684H9.14218C9.04523 10.2684 8.96371 10.2353 8.89761 10.1692C8.83151 10.1031 8.79846 10.026 8.79846 9.93788C8.79846 9.84093 8.83151 9.75941 8.89761 9.69331C8.96371 9.62721 9.04523 9.59416 9.14218 9.59416H9.8164C9.91335 9.59416 9.99487 9.62721 10.061 9.69331C10.1271 9.75941 10.1601 9.84093 10.1601 9.93788C10.1601 10.026 10.1271 10.1031 10.061 10.1692C9.99487 10.2353 9.91335 10.2684 9.8164 10.2684ZM11.8523 10.2684H11.1781C11.0811 10.2684 10.9996 10.2353 10.9335 10.1692C10.8674 10.1031 10.8343 10.026 10.8343 9.93788C10.8343 9.84093 10.8674 9.75941 10.9335 9.69331C10.9996 9.62721 11.0811 9.59416 11.1781 9.59416H11.8523C11.9404 9.59416 12.0175 9.62721 12.0836 9.69331C12.1497 9.75941 12.1828 9.84093 12.1828 9.93788C12.1828 10.026 12.1497 10.1031 12.0836 10.1692C12.0175 10.2353 11.9404 10.2684 11.8523 10.2684Z" fill="#3267FF"/>
</svg>
