<svg width="15" height="16" fill="none" xmlns="http://www.w3.org/2000/svg"><path d="M6.544 1.206L4.75 5.003l-4.005.609a.748.748 0 00-.536.32A1.027 1.027 0 000 6.59a.879.879 0 00.265.625l2.883 2.932-.673 4.213a.818.818 0 00.129.633c.128.187.301.31.52.368a.799.799 0 00.617-.072l3.604-1.874 3.605 1.874c.214.107.43.13.649.072a.828.828 0 00.504-.368.859.859 0 00.113-.633l-.657-4.213 2.867-2.932a.86.86 0 00.265-.609 1.027 1.027 0 00-.2-.64.842.842 0 00-.53-.353l-4.004-.609-1.81-3.797a.862.862 0 00-.481-.44.884.884 0 00-.64 0 .862.862 0 00-.482.44z" fill="#FFA63A"/></svg>