<svg width="30" height="33" viewBox="0 0 30 33" fill="none" xmlns="http://www.w3.org/2000/svg">
<path d="M2.70933 23.2746L18.916 12.031C23.6826 8.48855 24.3556 9.20733 25.1968 9.97743C25.8697 10.5935 25.365 11.7318 24.7481 12.1337C19.4955 15.5564 8.50785 22.8125 6.35444 24.4554C3.66267 26.509 2.42889 26.7657 1.64383 25.4309C0.933941 24.2239 1.92419 23.788 2.70933 23.2746Z" fill="#3B7CFF"/>
<path d="M10.6163 30.0001L18.0747 28.5113C21.2899 27.8438 27.9333 26.5501 28.7857 26.7144C29.6381 26.8786 29.926 27.3304 29.9634 27.5358C30.0007 27.6898 30.0419 28.1827 29.9073 28.922C29.7727 29.6613 28.8418 29.9488 28.3932 30.0001C23.8508 30.736 14.3287 32.2899 12.579 32.6185C10.392 33.0292 10.2237 32.3618 9.83119 31.3863C9.51715 30.6059 10.2237 30.137 10.6163 30.0001Z" fill="#3B7CFF"/>
<path d="M0.353992 13.8793L7.08341 3.76523C7.73766 2.72131 9.19196 0.582129 9.77518 0.376768C10.5042 0.120066 11.0089 0.0173856 11.9622 0.83883C12.7249 1.49599 12.0557 2.82399 11.6258 3.40584C9.27047 6.50338 4.42529 13.0476 3.88694 14.444C3.34859 15.8405 2.50367 16.3265 2.14851 16.3949C1.47556 16.4463 0.107247 16.3333 0.0175213 15.4708C-0.0722042 14.6083 0.20445 14.0504 0.353992 13.8793Z" fill="#3B7CFF"/>
</svg>
